<svg width="32" height="32" viewBox="0 0 32 32" fill="none" xmlns="http://www.w3.org/2000/svg">
<g clip-path="url(#clip0_5003_134541)">
<g filter="url(#filter0_i_5003_134541)">
<rect width="32" height="32" fill="url(#paint0_linear_5003_134541)"/>
</g>
<ellipse cx="32.5" cy="16" rx="2.5" ry="18" fill="black" fill-opacity="0.2"/>
<ellipse cx="16" cy="32.5" rx="3.5" ry="18" transform="rotate(90 16 32.5)" fill="black" fill-opacity="0.15"/>
<ellipse cx="-1" cy="16" rx="3" ry="18" fill="white" fill-opacity="0.05"/>
<ellipse cx="16" cy="-2" rx="4" ry="18" transform="rotate(90 16 -2)" fill="white" fill-opacity="0.08"/>
<path fill-rule="evenodd" clip-rule="evenodd" d="M15.9905 12.9758C13.4156 12.9758 11.4767 14.457 10.8551 15.1675C10.6777 15.3703 10.3694 15.3908 10.1666 15.2134C9.96383 15.0359 9.94328 14.7277 10.1207 14.5249C10.8748 13.6631 13.0628 12 15.9905 12C18.9183 12 21.1063 13.6631 21.8603 14.5249C22.0378 14.7277 22.0172 15.0359 21.8144 15.2134C21.6116 15.3908 21.3034 15.3703 21.126 15.1675C20.5043 14.457 18.5654 12.9758 15.9905 12.9758Z" fill="url(#paint1_linear_5003_134541)"/>
<path fill-rule="evenodd" clip-rule="evenodd" d="M15.9906 15.3342C14.0255 15.3342 12.8909 16.2887 12.4013 16.7674C12.2086 16.9557 11.8997 16.9523 11.7113 16.7596C11.5229 16.5669 11.5264 16.258 11.7191 16.0696C12.3014 15.5002 13.668 14.3584 15.9906 14.3584C18.3133 14.3584 19.6798 15.5002 20.2622 16.0696C20.4548 16.258 20.4583 16.5669 20.2699 16.7596C20.0815 16.9523 19.7726 16.9557 19.5799 16.7674C19.0904 16.2887 17.9557 15.3342 15.9906 15.3342Z" fill="url(#paint2_linear_5003_134541)"/>
<path d="M15.9911 20.3494L13.2397 17.9911C13.6328 17.7291 15.0477 16.812 15.9911 16.812C16.9344 16.812 18.3493 17.7291 18.7424 17.9911L15.9911 20.3494Z" fill="url(#paint3_linear_5003_134541)"/>
</g>
<defs>
<filter id="filter0_i_5003_134541" x="0" y="0" width="32" height="32" filterUnits="userSpaceOnUse" color-interpolation-filters="sRGB">
<feFlood flood-opacity="0" result="BackgroundImageFix"/>
<feBlend mode="normal" in="SourceGraphic" in2="BackgroundImageFix" result="shape"/>
<feColorMatrix in="SourceAlpha" type="matrix" values="0 0 0 0 0 0 0 0 0 0 0 0 0 0 0 0 0 0 127 0" result="hardAlpha"/>
<feOffset dy="-1.3623"/>
<feComposite in2="hardAlpha" operator="arithmetic" k2="-1" k3="1"/>
<feColorMatrix type="matrix" values="0 0 0 0 0.0416667 0 0 0 0 0.0416667 0 0 0 0 0.0416667 0 0 0 0.4 0"/>
<feBlend mode="normal" in2="shape" result="effect1_innerShadow_5003_134541"/>
</filter>
<linearGradient id="paint0_linear_5003_134541" x1="6.53681" y1="0.225218" x2="23.7444" y2="32.346" gradientUnits="userSpaceOnUse">
<stop stop-color="#C2C2C2"/>
<stop offset="1" stop-color="#666666"/>
</linearGradient>
<linearGradient id="paint1_linear_5003_134541" x1="15.9905" y1="12" x2="15.9905" y2="15.3341" gradientUnits="userSpaceOnUse">
<stop stop-color="white"/>
<stop offset="1" stop-color="#C9C9C9"/>
</linearGradient>
<linearGradient id="paint2_linear_5003_134541" x1="15.9906" y1="14.3584" x2="15.9906" y2="16.9064" gradientUnits="userSpaceOnUse">
<stop stop-color="white"/>
<stop offset="1" stop-color="#C9C9C9"/>
</linearGradient>
<linearGradient id="paint3_linear_5003_134541" x1="15.9911" y1="16.812" x2="15.9911" y2="20.3494" gradientUnits="userSpaceOnUse">
<stop stop-color="white"/>
<stop offset="1" stop-color="#C9C9C9"/>
</linearGradient>
<clipPath id="clip0_5003_134541">
<rect width="32" height="32" rx="2.7246" fill="white"/>
</clipPath>
</defs>
</svg>
