<svg width="36" height="34" viewBox="0 0 36 34" fill="none" xmlns="http://www.w3.org/2000/svg">
<g clip-path="url(#clip0_5003_134542)">
<g filter="url(#filter0_i_5003_134542)">
<rect width="35.0306" height="35.0306" fill="url(#paint0_linear_5003_134542)"/>
</g>
<ellipse cx="36.1984" cy="17.5155" rx="3.50306" ry="18.683" fill="black" fill-opacity="0.2"/>
<ellipse cx="17.5155" cy="35.0306" rx="4.67075" ry="17.5153" transform="rotate(90 17.5155 35.0306)" fill="black" fill-opacity="0.15"/>
<ellipse cx="-1.16784" cy="17.5155" rx="3.50306" ry="18.683" fill="white" fill-opacity="0.05"/>
<ellipse cx="17.5155" cy="-1.16763" rx="4.67075" ry="17.5153" transform="rotate(90 17.5155 -1.16763)" fill="white" fill-opacity="0.08"/>
<path fill-rule="evenodd" clip-rule="evenodd" d="M17.7117 13.5339C15.1368 13.5339 13.1979 15.0152 12.5763 15.7256C12.3989 15.9284 12.0906 15.9489 11.8878 15.7715C11.685 15.594 11.6645 15.2858 11.8419 15.083C12.596 14.2212 14.784 12.5581 17.7117 12.5581C20.6394 12.5581 22.8275 14.2212 23.5815 15.083C23.759 15.2858 23.7384 15.594 23.5356 15.7715C23.3328 15.9489 23.0246 15.9284 22.8471 15.7256C22.2255 15.0152 20.2866 13.5339 17.7117 13.5339Z" fill="url(#paint1_linear_5003_134542)"/>
<path fill-rule="evenodd" clip-rule="evenodd" d="M17.7118 15.8923C15.7467 15.8923 14.6121 16.8468 14.1225 17.3255C13.9298 17.5138 13.6209 17.5104 13.4325 17.3177C13.2441 17.125 13.2476 16.8161 13.4403 16.6277C14.0226 16.0583 15.3892 14.9165 17.7118 14.9165C20.0345 14.9165 21.401 16.0583 21.9834 16.6277C22.176 16.8161 22.1795 17.125 21.9911 17.3177C21.8027 17.5104 21.4938 17.5138 21.3011 17.3255C20.8116 16.8468 19.6769 15.8923 17.7118 15.8923Z" fill="url(#paint2_linear_5003_134542)"/>
<path d="M17.7122 20.9075L14.9609 18.5492C15.354 18.2872 16.7689 17.3701 17.7122 17.3701C18.6555 17.3701 20.0705 18.2872 20.4635 18.5492L17.7122 20.9075Z" fill="url(#paint3_linear_5003_134542)"/>
</g>
<defs>
<filter id="filter0_i_5003_134542" x="0" y="0" width="35.0308" height="35.0308" filterUnits="userSpaceOnUse" color-interpolation-filters="sRGB">
<feFlood flood-opacity="0" result="BackgroundImageFix"/>
<feBlend mode="normal" in="SourceGraphic" in2="BackgroundImageFix" result="shape"/>
<feColorMatrix in="SourceAlpha" type="matrix" values="0 0 0 0 0 0 0 0 0 0 0 0 0 0 0 0 0 0 127 0" result="hardAlpha"/>
<feOffset dy="-1.75153"/>
<feComposite in2="hardAlpha" operator="arithmetic" k2="-1" k3="1"/>
<feColorMatrix type="matrix" values="0 0 0 0 0.0416667 0 0 0 0 0.0416667 0 0 0 0 0.0416667 0 0 0 0.4 0"/>
<feBlend mode="normal" in2="shape" result="effect1_innerShadow_5003_134542"/>
</filter>
<linearGradient id="paint0_linear_5003_134542" x1="7.46866" y1="-0.0662253" x2="26.3059" y2="35.0966" gradientUnits="userSpaceOnUse">
<stop stop-color="#494949"/>
<stop offset="1" stop-color="#292929"/>
</linearGradient>
<linearGradient id="paint1_linear_5003_134542" x1="17.371" y1="12.5624" x2="17.6789" y2="16.1691" gradientUnits="userSpaceOnUse">
<stop stop-color="white" stop-opacity="0.76"/>
<stop offset="1" stop-color="white" stop-opacity="0.27"/>
</linearGradient>
<linearGradient id="paint2_linear_5003_134542" x1="17.4605" y1="14.9198" x2="17.7042" y2="17.6747" gradientUnits="userSpaceOnUse">
<stop stop-color="white" stop-opacity="0.76"/>
<stop offset="1" stop-color="white" stop-opacity="0.27"/>
</linearGradient>
<linearGradient id="paint3_linear_5003_134542" x1="17.5558" y1="17.3746" x2="18.2875" y2="21.0849" gradientUnits="userSpaceOnUse">
<stop stop-color="white" stop-opacity="0.76"/>
<stop offset="1" stop-color="white" stop-opacity="0.27"/>
</linearGradient>
<clipPath id="clip0_5003_134542">
<rect width="35.1628" height="33.0698" rx="3.50306" fill="white"/>
</clipPath>
</defs>
</svg>
