<svg width="36" height="36" viewBox="0 0 36 36" fill="none" xmlns="http://www.w3.org/2000/svg">
<g clip-path="url(#clip0_5768_118520)">
<mask id="mask0_5768_118520" style="mask-type:alpha" maskUnits="userSpaceOnUse" x="0" y="0" width="37" height="36">
<rect y="0.0898438" width="37" height="35" fill="url(#paint0_linear_5768_118520)"/>
</mask>
<g mask="url(#mask0_5768_118520)">
<rect y="0.0898438" width="37" height="35" fill="#A6A6A6"/>
<path d="M9.89062 -80.2773L-70.3818 83.457" stroke="black" stroke-opacity="0.08" stroke-width="0.455882"/>
<path d="M11.8647 -79.1377L-68.4077 84.5967" stroke="black" stroke-opacity="0.08" stroke-width="0.455882"/>
<path d="M13.8389 -77.998L-66.4335 85.7363" stroke="black" stroke-opacity="0.08" stroke-width="0.455882"/>
<path d="M15.813 -76.8584L-64.4594 86.876" stroke="black" stroke-opacity="0.08" stroke-width="0.455882"/>
<path d="M17.7871 -75.7188L-62.4853 88.0156" stroke="black" stroke-opacity="0.08" stroke-width="0.455882"/>
<path d="M19.7607 -74.5786L-60.5117 89.1557" stroke="black" stroke-opacity="0.08" stroke-width="0.455882"/>
<path d="M21.7349 -73.439L-58.5375 90.2954" stroke="black" stroke-opacity="0.08" stroke-width="0.455882"/>
<path d="M23.709 -72.2993L-56.5634 91.435" stroke="black" stroke-opacity="0.08" stroke-width="0.455882"/>
<path d="M25.6831 -71.1597L-54.5893 92.5747" stroke="black" stroke-opacity="0.08" stroke-width="0.455882"/>
<path d="M27.6567 -70.02L-52.6157 93.7143" stroke="black" stroke-opacity="0.08" stroke-width="0.455882"/>
<path d="M29.6309 -68.8804L-50.6415 94.854" stroke="black" stroke-opacity="0.08" stroke-width="0.455882"/>
<path d="M31.605 -67.7407L-48.6674 95.9936" stroke="black" stroke-opacity="0.08" stroke-width="0.455882"/>
<path d="M33.5791 -66.6011L-46.6933 97.1333" stroke="black" stroke-opacity="0.08" stroke-width="0.455882"/>
<path d="M35.5532 -65.4609L-44.7192 98.2734" stroke="black" stroke-opacity="0.08" stroke-width="0.455882"/>
<path d="M37.5269 -64.3213L-42.7455 99.4131" stroke="black" stroke-opacity="0.08" stroke-width="0.455882"/>
<path d="M39.501 -63.1816L-40.7714 100.553" stroke="black" stroke-opacity="0.08" stroke-width="0.455882"/>
<path d="M41.4751 -62.042L-38.7973 101.692" stroke="black" stroke-opacity="0.08" stroke-width="0.455882"/>
<path d="M43.4492 -60.9023L-36.8232 102.832" stroke="black" stroke-opacity="0.08" stroke-width="0.455882"/>
<path d="M45.4233 -59.7627L-34.8491 103.972" stroke="black" stroke-opacity="0.08" stroke-width="0.455882"/>
<path d="M47.3975 -58.623L-32.8749 105.111" stroke="black" stroke-opacity="0.08" stroke-width="0.455882"/>
<path d="M49.3716 -57.4834L-30.9008 106.251" stroke="black" stroke-opacity="0.08" stroke-width="0.455882"/>
<path d="M51.3452 -56.3438L-28.9272 107.391" stroke="black" stroke-opacity="0.08" stroke-width="0.455882"/>
<path d="M53.3193 -55.2036L-26.9531 108.531" stroke="black" stroke-opacity="0.08" stroke-width="0.455882"/>
<path d="M55.2935 -54.064L-24.9789 109.67" stroke="black" stroke-opacity="0.08" stroke-width="0.455882"/>
<path d="M57.2676 -52.9243L-23.0048 110.81" stroke="black" stroke-opacity="0.08" stroke-width="0.455882"/>
<path d="M59.2417 -51.7847L-21.0307 111.95" stroke="black" stroke-opacity="0.08" stroke-width="0.455882"/>
<path d="M61.2153 -50.645L-19.0571 113.089" stroke="black" stroke-opacity="0.08" stroke-width="0.455882"/>
<path d="M63.1895 -49.5054L-17.0829 114.229" stroke="black" stroke-opacity="0.08" stroke-width="0.455882"/>
<path d="M65.1636 -48.3657L-15.1088 115.369" stroke="black" stroke-opacity="0.08" stroke-width="0.455882"/>
<path d="M67.1377 -47.2261L-13.1347 116.508" stroke="black" stroke-opacity="0.08" stroke-width="0.455882"/>
<path d="M69.1113 -46.0864L-11.1611 117.648" stroke="black" stroke-opacity="0.08" stroke-width="0.455882"/>
<path d="M71.0854 -44.9463L-9.18695 118.788" stroke="black" stroke-opacity="0.08" stroke-width="0.455882"/>
<path d="M73.0596 -43.8066L-7.21283 119.928" stroke="black" stroke-opacity="0.08" stroke-width="0.455882"/>
<path d="M75.0337 -42.667L-5.23871 121.067" stroke="black" stroke-opacity="0.08" stroke-width="0.455882"/>
<path d="M77.0078 -41.5273L-3.26458 122.207" stroke="black" stroke-opacity="0.08" stroke-width="0.455882"/>
<path d="M78.9814 -40.3877L-1.29095 123.347" stroke="black" stroke-opacity="0.08" stroke-width="0.455882"/>
<path d="M80.9556 -39.248L0.683169 124.486" stroke="black" stroke-opacity="0.08" stroke-width="0.455882"/>
<path d="M82.9297 -38.1084L2.65729 125.626" stroke="black" stroke-opacity="0.08" stroke-width="0.455882"/>
<path d="M84.9038 -36.9688L4.63141 126.766" stroke="black" stroke-opacity="0.08" stroke-width="0.455882"/>
<path d="M86.8779 -35.8286L6.60553 127.906" stroke="black" stroke-opacity="0.08" stroke-width="0.455882"/>
<path d="M88.8521 -34.689L8.57965 129.045" stroke="black" stroke-opacity="0.08" stroke-width="0.455882"/>
<path d="M90.8262 -33.5493L10.5538 130.185" stroke="black" stroke-opacity="0.08" stroke-width="0.455882"/>
<path d="M92.7998 -32.4097L12.5274 131.325" stroke="black" stroke-opacity="0.08" stroke-width="0.455882"/>
<path d="M94.7739 -31.27L14.5015 132.464" stroke="black" stroke-opacity="0.08" stroke-width="0.455882"/>
<path d="M96.748 -30.1304L16.4756 133.604" stroke="black" stroke-opacity="0.08" stroke-width="0.455882"/>
<path d="M98.7222 -28.9907L18.4498 134.744" stroke="black" stroke-opacity="0.08" stroke-width="0.455882"/>
<path d="M100.696 -27.8511L20.4234 135.883" stroke="black" stroke-opacity="0.08" stroke-width="0.455882"/>
<path d="M102.67 -26.7114L22.3975 137.023" stroke="black" stroke-opacity="0.08" stroke-width="0.455882"/>
<path d="M104.644 -25.5713L24.3716 138.163" stroke="black" stroke-opacity="0.08" stroke-width="0.455882"/>
<path d="M106.618 -24.4316L26.3458 139.303" stroke="black" stroke-opacity="0.08" stroke-width="0.455882"/>
<path d="M108.592 -23.292L28.3199 140.442" stroke="black" stroke-opacity="0.08" stroke-width="0.455882"/>
<path d="M110.566 -22.1523L30.2935 141.582" stroke="black" stroke-opacity="0.08" stroke-width="0.455882"/>
<path d="M112.54 -21.0127L32.2676 142.722" stroke="black" stroke-opacity="0.08" stroke-width="0.455882"/>
<path d="M114.514 -19.873L34.2418 143.861" stroke="black" stroke-opacity="0.08" stroke-width="0.455882"/>
</g>
<path d="M18 11.25V16.3707M18 16.3707L15.9052 14.0431M18 16.3707L20.0948 14.0431M11.25 19.6293V21.9569C11.25 23.4995 12.5005 24.75 14.0431 24.75H21.9569C23.4995 24.75 24.75 23.4995 24.75 21.9569V19.6293M11.25 19.6293V14.9741C11.25 13.6726 12.1401 12.5791 13.3448 12.269M11.25 19.6293H15.9052V20.0948C15.9052 21.1232 16.7388 21.9569 17.7672 21.9569H18.2328C19.2612 21.9569 20.0948 21.1232 20.0948 20.0948V19.6293H24.75M24.75 19.6293V14.9741C24.75 13.6726 23.8599 12.5791 22.6552 12.269" stroke="#5C5C5C" stroke-linecap="round" stroke-linejoin="round"/>
</g>
<defs>
<linearGradient id="paint0_linear_5768_118520" x1="18.5" y1="0.0898437" x2="18.5" y2="35.0898" gradientUnits="userSpaceOnUse">
<stop stop-color="#444444"/>
<stop offset="1" stop-color="#444444" stop-opacity="0"/>
</linearGradient>
<clipPath id="clip0_5768_118520">
<rect width="36" height="36" rx="4" fill="white"/>
</clipPath>
</defs>
</svg>
