<svg width="56" height="56" viewBox="0 0 56 56" fill="none" xmlns="http://www.w3.org/2000/svg">
<g clip-path="url(#clip0_4831_118430)">
<rect width="56" height="56" rx="6" fill="white"/>
<g clip-path="url(#clip1_4831_118430)">
<g filter="url(#filter0_i_4831_118430)">
<path d="M0 0H56V56H0V0Z" fill="url(#paint0_linear_4831_118430)"/>
</g>
<ellipse cx="55.5" cy="28" rx="2.5" ry="30" fill="black" fill-opacity="0.2"/>
<ellipse cx="28" cy="55.5" rx="3.5" ry="30" transform="rotate(90 28 55.5)" fill="black" fill-opacity="0.15"/>
<ellipse cy="28" rx="3" ry="30" fill="white" fill-opacity="0.05"/>
<ellipse cx="28" cy="-1" rx="4" ry="30" transform="rotate(90 28 -1)" fill="white" fill-opacity="0.08"/>
<path d="M30.6552 21H33.6897L34.4483 28.5862L32.931 29.3448H24.9655M22.6897 29.3448H24.9655M24.9655 29.3448L23.069 25.5517H25.3448M23.8276 32C23.8276 33.8854 22.2992 35.4138 20.4138 35.4138C18.5284 35.4138 17 33.8854 17 32C17 30.1146 18.5284 28.5862 20.4138 28.5862C22.2992 28.5862 23.8276 30.1146 23.8276 32ZM39 32C39 33.8854 37.4716 35.4138 35.5862 35.4138C33.7008 35.4138 32.1724 33.8854 32.1724 32C32.1724 30.1146 33.7008 28.5862 35.5862 28.5862C37.4716 28.5862 39 30.1146 39 32Z" stroke="url(#paint1_linear_4831_118430)" stroke-width="2" stroke-linecap="round" stroke-linejoin="round"/>
</g>
</g>
<defs>
<filter id="filter0_i_4831_118430" x="0" y="0" width="56" height="56" filterUnits="userSpaceOnUse" color-interpolation-filters="sRGB">
<feFlood flood-opacity="0" result="BackgroundImageFix"/>
<feBlend mode="normal" in="SourceGraphic" in2="BackgroundImageFix" result="shape"/>
<feColorMatrix in="SourceAlpha" type="matrix" values="0 0 0 0 0 0 0 0 0 0 0 0 0 0 0 0 0 0 127 0" result="hardAlpha"/>
<feOffset dy="-1.3623"/>
<feComposite in2="hardAlpha" operator="arithmetic" k2="-1" k3="1"/>
<feColorMatrix type="matrix" values="0 0 0 0 0.0416667 0 0 0 0 0.0416667 0 0 0 0 0.0416667 0 0 0 0.4 0"/>
<feBlend mode="normal" in2="shape" result="effect1_innerShadow_4831_118430"/>
</filter>
<linearGradient id="paint0_linear_4831_118430" x1="11.4394" y1="0.394132" x2="41.5526" y2="56.6055" gradientUnits="userSpaceOnUse">
<stop stop-color="#494949"/>
<stop offset="1" stop-color="#292929"/>
</linearGradient>
<linearGradient id="paint1_linear_4831_118430" x1="28" y1="21" x2="28" y2="35.4138" gradientUnits="userSpaceOnUse">
<stop stop-color="white"/>
<stop offset="1" stop-color="#999999"/>
</linearGradient>
<clipPath id="clip0_4831_118430">
<rect width="56" height="56" rx="6" fill="white"/>
</clipPath>
<clipPath id="clip1_4831_118430">
<rect x="-2" width="59.5443" height="56" rx="2.7246" fill="white"/>
</clipPath>
</defs>
</svg>
