<svg width="56" height="56" viewBox="0 0 56 56" fill="none" xmlns="http://www.w3.org/2000/svg">
<g clip-path="url(#clip0_11843_8186)">
<rect width="56" height="56" rx="6" fill="white"/>
<g clip-path="url(#clip1_11843_8186)">
<rect width="56" height="56" rx="6" fill="white"/>
<g clip-path="url(#clip2_11843_8186)">
<g filter="url(#filter0_i_11843_8186)">
<path d="M0 0H56V56H0V0Z" fill="url(#paint0_linear_11843_8186)"/>
</g>
<ellipse cx="55.5" cy="28" rx="2.5" ry="30" fill="black" fill-opacity="0.2"/>
<ellipse cx="28" cy="55.5" rx="3.5" ry="30" transform="rotate(90 28 55.5)" fill="black" fill-opacity="0.15"/>
<ellipse cy="28" rx="3" ry="30" fill="white" fill-opacity="0.1"/>
<ellipse cx="28" cy="-1" rx="4" ry="30" transform="rotate(90 28 -1)" fill="white" fill-opacity="0.15"/>
<path d="M36.33 34.9697C38.0246 34.9697 38.7838 34.9697 39.3216 34.3902C39.3454 34.3648 39.3681 34.339 39.3895 34.3128C39.9 33.7024 39.9 32.7421 39.9 30.8191C39.9 29.3613 39.9 28.6331 39.6144 28.0179C39.3169 27.3753 38.779 26.9742 37.6485 26.1555C36.5252 25.3416 35.7279 24.4277 34.9675 23.1687C33.8823 21.3718 33.3396 20.4734 32.5269 19.9867C31.7129 19.5 30.7538 19.5 28.8356 19.5H28.0026L29.3342 23.6411C29.9863 25.67 30.3123 26.6839 30.9918 27.2575C31.6713 27.8298 32.5495 27.8298 34.3047 27.8298H38.71M28.0038 19.5V34.9697M24.4339 34.9697H31.5725M31.5725 34.9697C31.5725 34.3385 31.8229 33.7337 32.2692 33.2874C32.7156 32.8411 33.3209 32.5903 33.9521 32.5903C34.5833 32.5903 35.1887 32.8411 35.635 33.2874C36.0813 33.7337 36.3321 34.3391 36.3321 34.9703C36.3321 35.6015 36.0813 36.2068 35.635 36.6532C35.1887 37.0995 34.5833 37.3502 33.9521 37.3502C33.3209 37.3502 32.7156 37.0995 32.2692 36.6532C31.8229 36.2068 31.5725 35.6009 31.5725 34.9697ZM39.9 31.3998H38.71M28.0038 27.8298H17.2964C17.2964 27.8298 16.9144 27.8346 16.5824 27.8298C16.0338 27.8215 16.1064 27.806 16.1064 27.8774V29.0198C16.1064 29.0198 16.0826 32.9467 16.1266 33.4144C16.1266 33.7226 16.3682 33.9737 16.7966 34.2319C17.0774 34.4187 17.5177 34.715 17.8676 34.8555C18.296 35.0173 19.6763 34.9697 19.6763 34.9697M19.6763 34.9697C19.6763 34.3385 19.9267 33.7337 20.373 33.2874C20.8194 32.8411 21.4247 32.5903 22.0559 32.5903C22.6871 32.5903 23.2925 32.8411 23.7388 33.2874C24.1851 33.7337 24.4359 34.3391 24.4359 34.9703C24.4359 35.6015 24.1851 36.2068 23.7388 36.6532C23.2925 37.0995 22.6871 37.3502 22.0559 37.3502C21.4247 37.3502 20.8194 37.0995 20.373 36.6532C19.9267 36.2068 19.6763 35.6009 19.6763 34.9697Z" stroke="url(#paint1_linear_11843_8186)" stroke-width="1.78496" stroke-linecap="round" stroke-linejoin="round"/>
</g>
</g>
</g>
<defs>
<filter id="filter0_i_11843_8186" x="0" y="0" width="56" height="56" filterUnits="userSpaceOnUse" color-interpolation-filters="sRGB">
<feFlood flood-opacity="0" result="BackgroundImageFix"/>
<feBlend mode="normal" in="SourceGraphic" in2="BackgroundImageFix" result="shape"/>
<feColorMatrix in="SourceAlpha" type="matrix" values="0 0 0 0 0 0 0 0 0 0 0 0 0 0 0 0 0 0 127 0" result="hardAlpha"/>
<feOffset dy="-1.3623"/>
<feComposite in2="hardAlpha" operator="arithmetic" k2="-1" k3="1"/>
<feColorMatrix type="matrix" values="0 0 0 0 0.0416667 0 0 0 0 0.0416667 0 0 0 0 0.0416667 0 0 0 0.4 0"/>
<feBlend mode="normal" in2="shape" result="effect1_innerShadow_11843_8186"/>
</filter>
<linearGradient id="paint0_linear_11843_8186" x1="11.4394" y1="0.394132" x2="41.5526" y2="56.6055" gradientUnits="userSpaceOnUse">
<stop stop-color="#C2C2C2"/>
<stop offset="1" stop-color="#666666"/>
</linearGradient>
<linearGradient id="paint1_linear_11843_8186" x1="28" y1="19.5" x2="28" y2="37.3502" gradientUnits="userSpaceOnUse">
<stop stop-color="white"/>
<stop offset="1" stop-color="#C9C9C9"/>
</linearGradient>
<clipPath id="clip0_11843_8186">
<rect width="56" height="56" rx="6" fill="white"/>
</clipPath>
<clipPath id="clip1_11843_8186">
<rect width="56" height="56" rx="6" fill="white"/>
</clipPath>
<clipPath id="clip2_11843_8186">
<rect x="-2" width="59.5443" height="56" rx="2.7246" fill="white"/>
</clipPath>
</defs>
</svg>
