<svg width="56" height="56" viewBox="0 0 56 56" fill="none" xmlns="http://www.w3.org/2000/svg">
<g clip-path="url(#clip0_4825_118066)">
<rect width="56" height="56" rx="6" fill="white"/>
<g clip-path="url(#clip1_4825_118066)">
<rect width="56" height="56" rx="6" fill="white"/>
<g clip-path="url(#clip2_4825_118066)">
<g filter="url(#filter0_i_4825_118066)">
<path d="M0 0H56V56H0V0Z" fill="url(#paint0_linear_4825_118066)"/>
</g>
<ellipse cx="55.5" cy="28" rx="2.5" ry="30" fill="black" fill-opacity="0.2"/>
<ellipse cx="28" cy="55.5" rx="3.5" ry="30" transform="rotate(90 28 55.5)" fill="black" fill-opacity="0.15"/>
<ellipse cy="28" rx="3" ry="30" fill="white" fill-opacity="0.1"/>
<ellipse cx="28" cy="-1" rx="4" ry="30" transform="rotate(90 28 -1)" fill="white" fill-opacity="0.15"/>
<path d="M20.0344 36.7238V38.9996M35.9652 36.7238V38.9996M18.5172 35.9652H37.4828C38.3207 35.9652 39 35.2859 39 34.448V29.1377C39 27.4619 37.6414 26.1033 35.9656 26.1033H20.0344C18.3586 26.1033 17 27.4619 17 29.1377V34.448C17 35.2859 17.6793 35.9652 18.5172 35.9652ZM22.6896 31.0343C22.6896 31.4532 22.3499 31.7929 21.931 31.7929C21.512 31.7929 21.1723 31.4532 21.1723 31.0343C21.1723 30.6153 21.512 30.2756 21.931 30.2756C22.3499 30.2756 22.6896 30.6153 22.6896 31.0343ZM34.8273 31.0343C34.8273 31.4532 34.4877 31.7929 34.0687 31.7929C33.6497 31.7929 33.3101 31.4532 33.3101 31.0343C33.3101 30.6153 33.6497 30.2756 34.0687 30.2756C34.4877 30.2756 34.8273 30.6153 34.8273 31.0343ZM18.5172 26.1033H37.4828L36.3882 19.5356C36.1443 18.0724 34.8784 17 33.395 17H22.605C21.1216 17 19.8557 18.0724 19.6118 19.5356L18.5172 26.1033Z" stroke="url(#paint1_linear_4825_118066)" stroke-width="2" stroke-linecap="round" stroke-linejoin="round"/>
</g>
</g>
</g>
<defs>
<filter id="filter0_i_4825_118066" x="0" y="0" width="56" height="56" filterUnits="userSpaceOnUse" color-interpolation-filters="sRGB">
<feFlood flood-opacity="0" result="BackgroundImageFix"/>
<feBlend mode="normal" in="SourceGraphic" in2="BackgroundImageFix" result="shape"/>
<feColorMatrix in="SourceAlpha" type="matrix" values="0 0 0 0 0 0 0 0 0 0 0 0 0 0 0 0 0 0 127 0" result="hardAlpha"/>
<feOffset dy="-1.3623"/>
<feComposite in2="hardAlpha" operator="arithmetic" k2="-1" k3="1"/>
<feColorMatrix type="matrix" values="0 0 0 0 0.0416667 0 0 0 0 0.0416667 0 0 0 0 0.0416667 0 0 0 0.4 0"/>
<feBlend mode="normal" in2="shape" result="effect1_innerShadow_4825_118066"/>
</filter>
<linearGradient id="paint0_linear_4825_118066" x1="11.4394" y1="0.394132" x2="41.5526" y2="56.6055" gradientUnits="userSpaceOnUse">
<stop stop-color="#C2C2C2"/>
<stop offset="1" stop-color="#666666"/>
</linearGradient>
<linearGradient id="paint1_linear_4825_118066" x1="28" y1="17" x2="28" y2="38.9996" gradientUnits="userSpaceOnUse">
<stop stop-color="white"/>
<stop offset="1" stop-color="#C9C9C9"/>
</linearGradient>
<clipPath id="clip0_4825_118066">
<rect width="56" height="56" rx="6" fill="white"/>
</clipPath>
<clipPath id="clip1_4825_118066">
<rect width="56" height="56" rx="6" fill="white"/>
</clipPath>
<clipPath id="clip2_4825_118066">
<rect x="-2" width="59.5443" height="56" rx="2.7246" fill="white"/>
</clipPath>
</defs>
</svg>
