<svg width="56" height="56" viewBox="0 0 56 56" fill="none" xmlns="http://www.w3.org/2000/svg">
<g clip-path="url(#clip0_4825_118278)">
<rect width="56" height="56" rx="6" fill="white"/>
<g clip-path="url(#clip1_4825_118278)">
<rect width="56" height="56" rx="6" fill="white"/>
<g clip-path="url(#clip2_4825_118278)">
<g filter="url(#filter0_i_4825_118278)">
<path d="M0 0H56V56H0V0Z" fill="url(#paint0_linear_4825_118278)"/>
</g>
<ellipse cx="55.5" cy="28" rx="2.5" ry="30" fill="black" fill-opacity="0.2"/>
<ellipse cx="28" cy="55.5" rx="3.5" ry="30" transform="rotate(90 28 55.5)" fill="black" fill-opacity="0.15"/>
<ellipse cy="28" rx="3" ry="30" fill="white" fill-opacity="0.1"/>
<ellipse cx="28" cy="-1" rx="4" ry="30" transform="rotate(90 28 -1)" fill="white" fill-opacity="0.15"/>
<path d="M32.9314 32.931H17V17H32.9314V32.931ZM32.9314 32.931H39.0004V27.6207C39.0004 25.1068 36.9625 23.069 34.4486 23.069H32.931L32.9314 32.931ZM23.8276 36.3448C23.8276 37.8112 22.6388 39 21.1724 39C19.706 39 18.5172 37.8112 18.5172 36.3448C18.5172 34.8784 19.706 33.6897 21.1724 33.6897C22.6388 33.6897 23.8276 34.8784 23.8276 36.3448ZM37.4828 36.3448C37.4828 37.8112 36.294 39 34.8276 39C33.3612 39 32.1724 37.8112 32.1724 36.3448C32.1724 34.8784 33.3612 33.6897 34.8276 33.6897C36.294 33.6897 37.4828 34.8784 37.4828 36.3448Z" stroke="url(#paint1_linear_4825_118278)" stroke-width="2" stroke-linecap="round" stroke-linejoin="round"/>
</g>
</g>
</g>
<defs>
<filter id="filter0_i_4825_118278" x="0" y="0" width="56" height="56" filterUnits="userSpaceOnUse" color-interpolation-filters="sRGB">
<feFlood flood-opacity="0" result="BackgroundImageFix"/>
<feBlend mode="normal" in="SourceGraphic" in2="BackgroundImageFix" result="shape"/>
<feColorMatrix in="SourceAlpha" type="matrix" values="0 0 0 0 0 0 0 0 0 0 0 0 0 0 0 0 0 0 127 0" result="hardAlpha"/>
<feOffset dy="-1.3623"/>
<feComposite in2="hardAlpha" operator="arithmetic" k2="-1" k3="1"/>
<feColorMatrix type="matrix" values="0 0 0 0 0.0416667 0 0 0 0 0.0416667 0 0 0 0 0.0416667 0 0 0 0.4 0"/>
<feBlend mode="normal" in2="shape" result="effect1_innerShadow_4825_118278"/>
</filter>
<linearGradient id="paint0_linear_4825_118278" x1="11.4394" y1="0.394132" x2="41.5526" y2="56.6055" gradientUnits="userSpaceOnUse">
<stop stop-color="#C2C2C2"/>
<stop offset="1" stop-color="#666666"/>
</linearGradient>
<linearGradient id="paint1_linear_4825_118278" x1="28.0002" y1="17" x2="28.0002" y2="39" gradientUnits="userSpaceOnUse">
<stop stop-color="white"/>
<stop offset="1" stop-color="#C9C9C9"/>
</linearGradient>
<clipPath id="clip0_4825_118278">
<rect width="56" height="56" rx="6" fill="white"/>
</clipPath>
<clipPath id="clip1_4825_118278">
<rect width="56" height="56" rx="6" fill="white"/>
</clipPath>
<clipPath id="clip2_4825_118278">
<rect x="-2" width="59.5443" height="56" rx="2.7246" fill="white"/>
</clipPath>
</defs>
</svg>
