<svg width="94" height="94" viewBox="0 0 94 93" fill="none" xmlns="http://www.w3.org/2000/svg">
    <g filter="url(#filter0_d_2676_87083)">
        <path fill-rule="evenodd" clip-rule="evenodd"
            d="M88 46.5C88 69.1437 69.6437 87.5 47 87.5C24.3563 87.5 6 69.1437 6 46.5C6 23.8563 24.3563 5.5 47 5.5C69.6437 5.5 88 23.8563 88 46.5ZM46.75 13.5V9.5H47.25V13.5H46.75ZM46.75 79.5V83.5H47.25V79.5H46.75ZM14 46.75H10V46.25H14V46.75ZM80 46.75H84V46.25H80V46.75ZM55.2994 14.5597L56.3347 10.696L56.8177 10.8254L55.7824 14.6891L55.2994 14.5597ZM38.2174 78.3108L37.1821 82.1745L37.665 82.304L38.7003 78.4403L38.2174 78.3108ZM15.0597 38.2006L11.196 37.1653L11.3254 36.6823L15.1891 37.7176L15.0597 38.2006ZM78.8108 55.2826L82.6745 56.3179L82.804 55.835L78.9403 54.7997L78.8108 55.2826ZM63.2835 17.7962L65.2835 14.3321L65.7165 14.5821L63.7165 18.0462L63.2835 17.7962ZM30.2835 74.9538L28.2835 78.4179L28.7165 78.6679L30.7165 75.2038L30.2835 74.9538ZM18.2961 30.2165L14.832 28.2165L15.082 27.7835L18.5461 29.7835L18.2961 30.2165ZM75.4538 63.2165L78.9179 65.2165L79.1679 64.7835L75.7038 62.7835L75.4538 63.2165ZM70.1579 22.9887L72.9863 20.1603L73.3399 20.5138L70.5114 23.3423L70.1579 22.9887ZM23.4888 69.6577L20.6604 72.4862L21.014 72.8397L23.8424 70.0113L23.4888 69.6577ZM23.4886 23.3421L20.6601 20.5137L21.0137 20.1601L23.8421 22.9886L23.4886 23.3421ZM70.1576 70.0112L72.986 72.8396L73.3396 72.486L70.5112 69.6576L70.1576 70.0112ZM75.4539 29.7835L78.918 27.7835L79.168 28.2165L75.7039 30.2165L75.4539 29.7835ZM18.2962 62.7835L14.8321 64.7835L15.0821 65.2165L18.5462 63.2165L18.2962 62.7835ZM30.2835 18.0461L28.2835 14.582L28.7165 14.332L30.7165 17.7961L30.2835 18.0461ZM63.2835 75.2038L65.2835 78.6679L65.7165 78.4179L63.7165 74.9538L63.2835 75.2038ZM78.8109 37.7175L82.6746 36.6822L82.804 37.1652L78.9403 38.2004L78.8109 37.7175ZM15.0597 54.7995L11.196 55.8348L11.3255 56.3178L15.1892 55.2825L15.0597 54.7995ZM38.2176 14.6891L37.1823 10.8254L37.6653 10.696L38.7006 14.5597L38.2176 14.6891ZM55.2997 78.4403L56.335 82.304L56.8179 82.1745L55.7826 78.3108L55.2997 78.4403Z"
            fill="white" />
    </g>
    <defs>
        <filter id="filter0_d_2676_87083" x="0.5" y="0" width="93" height="93" filterUnits="userSpaceOnUse"
            color-interpolation-filters="sRGB">
            <feFlood flood-opacity="0" result="BackgroundImageFix" />
            <feColorMatrix in="SourceAlpha" type="matrix" values="0 0 0 0 0 0 0 0 0 0 0 0 0 0 0 0 0 0 127 0"
                result="hardAlpha" />
            <feOffset />
            <feGaussianBlur stdDeviation="2.75" />
            <feComposite in2="hardAlpha" operator="out" />
            <feColorMatrix type="matrix" values="0 0 0 0 0 0 0 0 0 0 0 0 0 0 0 0 0 0 0.4 0" />
            <feBlend mode="normal" in2="BackgroundImageFix" result="effect1_dropShadow_2676_87083" />
            <feBlend mode="normal" in="SourceGraphic" in2="effect1_dropShadow_2676_87083" result="shape" />
        </filter>
    </defs>
</svg>