<svg width="44" height="49" viewBox="0 0 44 49" fill="none" xmlns="http://www.w3.org/2000/svg">
    <g filter="url(#filter0_d_17036_305931)">
        <mask id="path-1-outside-1_17036_305931" maskUnits="userSpaceOnUse" x="4" y="0" width="36" height="41"
            fill="black">
            <rect fill="white" x="4" width="36" height="41" />
            <path
                d="M22 2C30.8366 2 38 8.96457 38 17.5557C37.9999 24.9741 32.6584 31.1785 25.5107 32.7344L22 37.002L18.4883 32.7344C11.3411 31.1782 6.00005 24.9737 6 17.5557C6 8.96457 13.1634 2 22 2Z" />
        </mask>
        <path
            d="M22 2C30.8366 2 38 8.96457 38 17.5557C37.9999 24.9741 32.6584 31.1785 25.5107 32.7344L22 37.002L18.4883 32.7344C11.3411 31.1782 6.00005 24.9737 6 17.5557C6 8.96457 13.1634 2 22 2Z"
            fill="#678AFB" />
        <path
            d="M38 17.5557L40 17.5557V17.5557H38ZM25.5107 32.7344L25.0854 30.7801L24.4072 30.9278L23.9662 31.4638L25.5107 32.7344ZM22 37.002L20.4557 38.2728L22.0002 40.1498L23.5445 38.2726L22 37.002ZM18.4883 32.7344L20.0326 31.4636L19.5917 30.9278L18.9138 30.7802L18.4883 32.7344ZM6 17.5557H4V17.5557L6 17.5557ZM22 2V4C29.7855 4 36 10.1219 36 17.5557H38H40C40 7.80728 31.8877 0 22 0V2ZM38 17.5557L36 17.5556C36 23.9764 31.3707 29.412 25.0854 30.7801L25.5107 32.7344L25.9361 34.6886C33.946 32.9451 39.9999 25.9717 40 17.5557L38 17.5557ZM25.5107 32.7344L23.9662 31.4638L20.4555 35.7313L22 37.002L23.5445 38.2726L27.0553 34.005L25.5107 32.7344ZM22 37.002L23.5443 35.7311L20.0326 31.4636L18.4883 32.7344L16.9439 34.0052L20.4557 38.2728L22 37.002ZM18.4883 32.7344L18.9138 30.7802C12.6288 29.4117 8.00005 23.9762 8 17.5556L6 17.5557L4 17.5557C4.00006 25.9713 10.0534 32.9447 18.0628 34.6886L18.4883 32.7344ZM6 17.5557H8C8 10.1219 14.2145 4 22 4V2V0C12.1123 0 4 7.80728 4 17.5557H6Z"
            fill="white" mask="url(#path-1-outside-1_17036_305931)" />
    </g>
    <defs>
        <filter id="filter0_d_17036_305931" x="0" y="0" width="44" height="48.1484" filterUnits="userSpaceOnUse"
            color-interpolation-filters="sRGB">
            <feFlood flood-opacity="0" result="BackgroundImageFix" />
            <feColorMatrix in="SourceAlpha" type="matrix" values="0 0 0 0 0 0 0 0 0 0 0 0 0 0 0 0 0 0 127 0"
                result="hardAlpha" />
            <feOffset dy="4" />
            <feGaussianBlur stdDeviation="2" />
            <feComposite in2="hardAlpha" operator="out" />
            <feColorMatrix type="matrix" values="0 0 0 0 0.360784 0 0 0 0 0.360784 0 0 0 0 0.360784 0 0 0 0.25 0" />
            <feBlend mode="normal" in2="BackgroundImageFix" result="effect1_dropShadow_17036_305931" />
            <feBlend mode="normal" in="SourceGraphic" in2="effect1_dropShadow_17036_305931" result="shape" />
        </filter>
    </defs>
</svg>
