<svg width="25" height="24" viewBox="0 0 25 24" fill="none" xmlns="http://www.w3.org/2000/svg">
<path d="M6.10345 10.2759H4.37931C3.61754 10.2759 3 10.8934 3 11.6552V16.4828C3 17.2445 3.61754 17.8621 4.37931 17.8621H5.53212C5.89794 17.8621 6.24877 18.0074 6.50744 18.2661L10.2414 22H17.1379L19.8966 19.2414H21.6207C22.3825 19.2414 23 18.6238 23 17.8621V7.51725C23 6.75548 22.3825 6.13794 21.6207 6.13794H11.384C10.6524 6.13794 9.95074 6.42858 9.4334 6.94592L6.10345 10.2759Z" stroke="#5C5C5C" stroke-linecap="round" stroke-linejoin="round"/>
<path d="M15.7588 5.793V2.34473" stroke="#5C5C5C" stroke-linecap="round" stroke-linejoin="round"/>
<path d="M12.6553 2H18.8622" stroke="#5C5C5C" stroke-linecap="round" stroke-linejoin="round"/>
<path d="M14.3794 10.2759L12.6553 13.7242H16.1035L14.3794 17.8621" stroke="#5C5C5C" stroke-linecap="round" stroke-linejoin="round"/>
</svg>
