<svg width="64" height="61" viewBox="0 0 64 61" fill="none" xmlns="http://www.w3.org/2000/svg">
    <g clip-path="url(#clip0_2465_25902)">
        <g filter="url(#filter0_i_2465_25902)">
            <rect width="65" height="65" fill="url(#paint0_linear_2465_25902)" />
        </g>
        <ellipse cx="65" cy="30" rx="5" ry="30" fill="black" fill-opacity="0.2" />
        <ellipse cx="32" cy="61" rx="5" ry="32" transform="rotate(90 32 61)" fill="black" fill-opacity="0.15" />
        <ellipse cx="-1" cy="30" rx="5" ry="30" fill="white" fill-opacity="0.05" />
        <ellipse cx="32" cy="-1" rx="5" ry="32" transform="rotate(90 32 -1)" fill="white" fill-opacity="0.08" />
        <path
            d="M24.0344 38.7238V40.9996M39.9652 38.7238V40.9996M22.5172 37.9652H41.4828C42.3207 37.9652 43 37.2859 43 36.448V31.1377C43 29.4619 41.6414 28.1033 39.9656 28.1033H24.0344C22.3586 28.1033 21 29.4619 21 31.1377V36.448C21 37.2859 21.6793 37.9652 22.5172 37.9652ZM26.6896 33.0343C26.6896 33.4532 26.3499 33.7929 25.931 33.7929C25.512 33.7929 25.1723 33.4532 25.1723 33.0343C25.1723 32.6153 25.512 32.2756 25.931 32.2756C26.3499 32.2756 26.6896 32.6153 26.6896 33.0343ZM38.8273 33.0343C38.8273 33.4532 38.4877 33.7929 38.0687 33.7929C37.6497 33.7929 37.3101 33.4532 37.3101 33.0343C37.3101 32.6153 37.6497 32.2756 38.0687 32.2756C38.4877 32.2756 38.8273 32.6153 38.8273 33.0343ZM22.5172 28.1033H41.4828L40.3882 21.5356C40.1443 20.0724 38.8784 19 37.395 19H26.605C25.1216 19 23.8557 20.0724 23.6118 21.5356L22.5172 28.1033Z"
            stroke="url(#paint1_linear_2465_25902)" stroke-width="2" stroke-linecap="round" stroke-linejoin="round" />
    </g>
    <defs>
        <filter id="filter0_i_2465_25902" x="0" y="0" width="65" height="65" filterUnits="userSpaceOnUse"
            color-interpolation-filters="sRGB">
            <feFlood flood-opacity="0" result="BackgroundImageFix" />
            <feBlend mode="normal" in="SourceGraphic" in2="BackgroundImageFix" result="shape" />
            <feColorMatrix in="SourceAlpha" type="matrix" values="0 0 0 0 0 0 0 0 0 0 0 0 0 0 0 0 0 0 127 0"
                result="hardAlpha" />
            <feOffset dy="-2.18" />
            <feComposite in2="hardAlpha" operator="arithmetic" k2="-1" k3="1" />
            <feColorMatrix type="matrix" values="0 0 0 0 0.0416667 0 0 0 0 0.0416667 0 0 0 0 0.0416667 0 0 0 0.4 0" />
            <feBlend mode="normal" in2="shape" result="effect1_innerShadow_2465_25902" />
        </filter>
        <linearGradient id="paint0_linear_2465_25902" x1="13.8583" y1="-0.122882" x2="48.8111" y2="65.1224"
            gradientUnits="userSpaceOnUse">
            <stop stop-color="#494949" />
            <stop offset="1" stop-color="#292929" />
        </linearGradient>
        <linearGradient id="paint1_linear_2465_25902" x1="40.6189" y1="38.4425" x2="41.7083" y2="40.7087"
            gradientUnits="userSpaceOnUse">
            <stop stop-color="white" stop-opacity="0.76" />
        </linearGradient>
        <clipPath id="clip0_2465_25902">
            <rect width="64" height="60.1905" rx="4.37" fill="white" />
        </clipPath>
    </defs>
</svg>