<svg width="172" height="44" fill="none" xmlns="http://www.w3.org/2000/svg">
    <mask id="b" style="mask-type:alpha" maskUnits="userSpaceOnUse" x="-9" y="0" width="190" height="44">
        <ellipse cx="86" cy="22" rx="95" ry="22" fill="url(#a)" />
    </mask>
    <g mask="url(#b)" stroke="#353535" stroke-width=".842">
        <circle cx="85.5" cy="21.5" r="13.052" />
        <circle cx="85.5" cy="21.498" r="11.929" />
        <circle cx="85.5" cy="21.502" r="14.174" />
        <circle cx="85.5" cy="21.499" r="15.297" />
        <circle cx="85.5" cy="21.5" r="16.981" />
        <circle cx="85.5" cy="21.499" r="19.227" />
        <circle cx="85.5" cy="21.501" r="22.033" />
        <circle cx="85.5" cy="21.498" r="25.401" />
        <circle cx="85.5" cy="21.498" r="29.331" />
        <circle cx="85.5" cy="21.5" r="34.383" />
        <circle cx="85.5" cy="21.501" r="39.435" />
        <circle cx="85.5" cy="21.499" r="44.488" />
        <circle cx="85.5" cy="21.499" r="51.785" />
        <circle cx="85.5" cy="21.5" r="68.626" />
        <circle cx="85.5" cy="21.5" r="78.169" />
        <circle cx="85.5" cy="21.498" r="88.835" />
        <circle cx="85.5" cy="21.502" r="100.624" />
        <circle cx="85.5" cy="21.499" r="113.535" />
        <circle cx="85.5" cy="21.5" r="130.376" />
        <circle cx="85.5" cy="21.5" r="147.778" />
        <circle cx="85.5" cy="21.502" r="167.987" />
        <circle cx="85.5" cy="21.501" r="189.319" />
        <circle cx="85.5" cy="21.499" r="211.773" />
        <circle cx="85.5" cy="21.5" r="238.157" />
        <circle cx="85.5" cy="21.502" r="267.909" />
        <circle cx="85.5" cy="21.501" r="301.029" />
        <circle cx="85.5" cy="21.5" r="338.079" />
        <circle cx="85.5" cy="21.499" r="59.645" />
    </g>
    <defs>
        <radialGradient id="a" cx="0" cy="0" r="1" gradientUnits="userSpaceOnUse"
            gradientTransform="matrix(0 22 -95 0 86 22)">
            <stop stop-color="#D9D9D9" />
            <stop offset="1" stop-color="#737373" stop-opacity="0" />
        </radialGradient>
    </defs>
</svg>