<svg width="20" height="20" fill="none" xmlns="http://www.w3.org/2000/svg">
    <path
        d="M15.828 10.813h-3.03c-.687 0-1.097-.16-1.338-.39-.236-.227-.398-.606-.398-1.248v-5.1c0-.64.163-1.02.4-1.247.243-.231.654-.39 1.335-.39h3.03c.687 0 1.097.159 1.338.39.236.226.398.605.398 1.247v5.1c0 .64-.163 1.02-.4 1.247-.243.231-.654.39-1.335.39Zm-3.03-8.25c-.475 0-.95.051-1.266.368-.32.32-.345.779-.345 1.144v5.1c0 .365.024.823.345 1.144.316.317.79.368 1.265.368h3.03c.475 0 .95-.051 1.266-.368.32-.32.345-.779.345-1.144v-5.1c0-.365-.024-.823-.345-1.144-.317-.317-.79-.369-1.265-.369h-3.03Zm3.03 15h-3.03c-.687 0-1.097-.16-1.338-.39-.236-.227-.398-.606-.398-1.248v-1.35c0-.64.163-1.02.4-1.247.243-.231.654-.39 1.335-.39h3.03c.687 0 1.097.159 1.338.39.236.226.398.605.398 1.247v1.35c0 .64-.163 1.02-.4 1.247-.243.231-.654.39-1.335.39Zm-3.03-4.5c-.475 0-.95.051-1.266.368-.32.32-.345.779-.345 1.144v1.35c0 .365.024.823.345 1.144.316.317.79.369 1.265.369h3.03c.475 0 .95-.052 1.266-.37.32-.32.345-.778.345-1.143v-1.35c0-.365-.024-.823-.345-1.144-.317-.317-.79-.368-1.265-.368h-3.03Zm-5.596 4.5h-3.03c-.686 0-1.096-.16-1.337-.39-.236-.227-.397-.606-.397-1.248v-5.1c0-.64.162-1.02.4-1.247.242-.231.653-.39 1.335-.39h3.03c.686 0 1.096.159 1.337.39.236.226.398.605.398 1.247v5.1c0 .64-.163 1.02-.4 1.247-.243.231-.654.39-1.336.39Zm-3.03-8.25c-.474 0-.948.051-1.265.368-.32.32-.345.779-.345 1.144v5.1c0 .365.024.823.345 1.144.317.317.79.369 1.266.369h3.03c.474 0 .948-.052 1.265-.37.32-.32.345-.778.345-1.143v-5.1c0-.365-.024-.823-.345-1.144-.317-.317-.79-.368-1.266-.368h-3.03Zm3.03-2.25h-3.03c-.686 0-1.096-.16-1.337-.39-.236-.227-.397-.606-.397-1.248v-1.35c0-.64.162-1.02.4-1.247.242-.231.653-.39 1.335-.39h3.03c.686 0 1.096.159 1.337.39.236.226.398.605.398 1.247v1.35c0 .64-.163 1.02-.4 1.247-.243.231-.654.39-1.336.39Zm-3.03-4.5c-.474 0-.948.051-1.265.368-.32.32-.345.779-.345 1.144v1.35c0 .365.024.823.345 1.144.317.317.79.369 1.266.369h3.03c.474 0 .948-.052 1.265-.37.32-.32.345-.778.345-1.143v-1.35c0-.365-.024-.823-.345-1.144-.317-.317-.79-.369-1.266-.369h-3.03Z"
        stroke="currentColor" />
</svg>