<svg width="23" height="24" viewBox="0 0 23 24" fill="none" xmlns="http://www.w3.org/2000/svg">
<path fill-rule="evenodd" clip-rule="evenodd" d="M11.5 4.78711C14.3674 4.78709 17.2041 5.91964 19.7896 8.1286C20.0398 8.34239 20.0714 8.72095 19.86 8.97413C19.6487 9.22731 19.2746 9.25924 19.0243 9.04545C16.616 6.98783 14.0425 5.9871 11.5 5.98711C8.95741 5.98712 6.38401 6.98788 3.97564 9.04553C3.72541 9.25932 3.35125 9.2274 3.13995 8.97422C2.92864 8.72104 2.9602 8.34249 3.21043 8.1287C5.79594 5.9197 8.63255 4.78713 11.5 4.78711ZM11.5689 9.58712C13.5552 9.58712 15.4848 10.4716 17.0712 12.1758C17.2958 12.417 17.2846 12.7966 17.0461 13.0239C16.8077 13.2511 16.4324 13.2398 16.2079 12.9985C14.8152 11.5026 13.1867 10.7871 11.5689 10.7871C9.9488 10.7871 8.26872 11.505 6.7798 13.0114C6.54821 13.2457 6.17273 13.2457 5.94114 13.0114C5.70955 12.777 5.70955 12.3972 5.94114 12.1629C7.61501 10.4693 9.58493 9.58712 11.5689 9.58712ZM9.10405 13.7629C9.33564 13.5286 9.71112 13.5286 9.94271 13.7629L11.5001 15.3386L13.0575 13.7629C13.2891 13.5286 13.6646 13.5286 13.8962 13.7629C14.1278 13.9972 14.1278 14.377 13.8962 14.6114L12.3388 16.1871L13.8962 17.7629C14.1278 17.9972 14.1278 18.377 13.8962 18.6114C13.6646 18.8457 13.2891 18.8457 13.0575 18.6114L11.5001 17.0357L9.94271 18.6114C9.71112 18.8457 9.33564 18.8457 9.10405 18.6114C8.87246 18.377 8.87246 17.9972 9.10405 17.7629L10.6615 16.1871L9.10405 14.6114C8.87246 14.377 8.87246 13.9972 9.10405 13.7629Z" fill="currentColor"/>
</svg>
