<svg width="20" height="20" viewBox="0 0 20 20" fill="none" xmlns="http://www.w3.org/2000/svg">
<path d="M10.0417 5.66667C10.0417 4.74619 10.7878 4 11.7083 4H15.25C15.7102 4 16.0833 4.3731 16.0833 4.83333V13.5833C16.0833 14.0436 15.7102 14.4167 15.25 14.4167H13.0891C12.205 14.4167 11.3572 14.7678 10.732 15.393L10.0417 16.0833M10.0417 5.66667V16.0833M10.0417 5.66667C10.0417 4.74619 9.2955 4 8.375 4H4.83333C4.3731 4 4 4.3731 4 4.83333V13.5833C4 14.0436 4.3731 14.4167 4.83333 14.4167H6.99429C7.87834 14.4167 8.72617 14.7678 9.35133 15.393L10.0417 16.0833" stroke="#656565" stroke-width="1.25" stroke-linecap="round" stroke-linejoin="round"/>
</svg>
