<svg width="20" height="20" fill="none" xmlns="http://www.w3.org/2000/svg">
    <g clip-path="url(#a)">
        <path
            d="M15.52 12.385c.015-.116.024-.233.024-.352V4.272A2.775 2.775 0 0 0 12.771 1.5H8.337a2.775 2.775 0 0 0-2.772 2.772v1.663H3.902a.554.554 0 0 0 0 1.108h1.663v4.99c0 .119.009.236.023.352a2.762 2.762 0 0 0-1.131 2.235v3.326c0 .306.248.554.554.554h11.087a.554.554 0 0 0 .554-.554V14.62a2.76 2.76 0 0 0-1.132-2.235ZM8.337 2.609h4.435c.917 0 1.663.746 1.663 1.663v1.663h-3.326V5.38c0-.917-.746-1.663-1.663-1.663H6.769A1.666 1.666 0 0 1 8.337 2.61ZM6.674 4.826h2.772c.305 0 .554.249.554.554v.555H6.674V4.826Zm0 9.424v3.141H5.565V14.62c0-.42.156-.813.427-1.113.18.287.412.538.682.742v.001Zm6.652 3.141H7.783V14.75c.179.036.364.055.554.055h4.435c.19 0 .375-.019.554-.055v2.642Zm-.554-3.695H8.337a1.665 1.665 0 0 1-1.663-1.663v-4.99h7.76v4.99c0 .917-.745 1.663-1.662 1.663Zm2.771 3.695h-1.108V14.25c.27-.204.501-.455.682-.742.27.3.426.693.426 1.113v2.771Z"
            fill="currentColor" />
    </g>
    <defs>
        <clipPath id="a">
            <path fill="#fff" transform="translate(1.5 1.5)" d="M0 0h17v17H0z" />
        </clipPath>
    </defs>
</svg>