<svg width="16" height="16" viewBox="0 0 16 16" fill="none" xmlns="http://www.w3.org/2000/svg">
<mask id="path-1-inside-1_12917_16777" fill="white">
<path d="M13.1061 9.15018H10.451C9.12997 9.15018 8.49248 8.53897 8.49248 7.27713V2.8081C8.49248 1.54626 9.13654 0.935059 10.451 0.935059H13.1061C14.4271 0.935059 15.0646 1.54626 15.0646 2.8081V7.27713C15.0646 8.53897 14.4205 9.15018 13.1061 9.15018ZM10.451 1.92087C9.6163 1.92087 9.47829 2.14432 9.47829 2.8081V7.27713C9.47829 7.94091 9.6163 8.16436 10.451 8.16436H13.1061C13.9407 8.16436 14.0788 7.94091 14.0788 7.27713V2.8081C14.0788 2.14432 13.9407 1.92087 13.1061 1.92087H10.451Z"/>
<path d="M13.1061 15.0651H10.451C9.12997 15.0651 8.49248 14.4539 8.49248 13.192V12.009C8.49248 10.7472 9.13654 10.136 10.451 10.136H13.1061C14.4271 10.136 15.0646 10.7472 15.0646 12.009V13.192C15.0646 14.4539 14.4205 15.0651 13.1061 15.0651ZM10.451 11.1218C9.6163 11.1218 9.47829 11.3453 9.47829 12.009V13.192C9.47829 13.8558 9.6163 14.0792 10.451 14.0792H13.1061C13.9407 14.0792 14.0788 13.8558 14.0788 13.192V12.009C14.0788 11.3453 13.9407 11.1218 13.1061 11.1218H10.451Z"/>
<path d="M5.54818 15.0651H2.89305C1.57206 15.0651 0.93457 14.4539 0.93457 13.192V8.72299C0.93457 7.46115 1.57864 6.84994 2.89305 6.84994H5.54818C6.86917 6.84994 7.50666 7.46115 7.50666 8.72299V13.192C7.50666 14.4539 6.8626 15.0651 5.54818 15.0651ZM2.89305 7.83576C2.0584 7.83576 1.92038 8.05921 1.92038 8.72299V13.192C1.92038 13.8558 2.0584 14.0792 2.89305 14.0792H5.54818C6.38284 14.0792 6.52085 13.8558 6.52085 13.192V8.72299C6.52085 8.05921 6.38284 7.83576 5.54818 7.83576H2.89305Z"/>
<path d="M5.54818 5.86413H2.89305C1.57206 5.86413 0.93457 5.25292 0.93457 3.99108V2.8081C0.93457 1.54626 1.57864 0.935059 2.89305 0.935059H5.54818C6.86917 0.935059 7.50666 1.54626 7.50666 2.8081V3.99108C7.50666 5.25292 6.8626 5.86413 5.54818 5.86413ZM2.89305 1.92087C2.0584 1.92087 1.92038 2.14432 1.92038 2.8081V3.99108C1.92038 4.65486 2.0584 4.87831 2.89305 4.87831H5.54818C6.38284 4.87831 6.52085 4.65486 6.52085 3.99108V2.8081C6.52085 2.14432 6.38284 1.92087 5.54818 1.92087H2.89305Z"/>
</mask>
<path d="M13.1061 8.15017H10.451V10.1502H13.1061V8.15017ZM10.451 8.15017C9.92567 8.15017 9.73331 8.02711 9.66774 7.96436C9.61084 7.90991 9.49248 7.75117 9.49248 7.27713H7.49248C7.49248 8.06492 7.69286 8.84271 8.28496 9.40932C8.86838 9.96764 9.65526 10.1502 10.451 10.1502V8.15017ZM9.49248 7.27713V2.8081H7.49248V7.27713H9.49248ZM9.49248 2.8081C9.49248 2.33673 9.61109 2.1773 9.66929 2.12175C9.73654 2.05755 9.93022 1.93506 10.451 1.93506V-0.0649414C9.65728 -0.0649414 8.87172 0.118172 8.28834 0.675036C7.6959 1.24055 7.49248 2.01764 7.49248 2.8081H9.49248ZM10.451 1.93506H13.1061V-0.0649414H10.451V1.93506ZM13.1061 1.93506C13.6314 1.93506 13.8237 2.05813 13.8893 2.12087C13.9462 2.17532 14.0646 2.33406 14.0646 2.8081H16.0646C16.0646 2.02031 15.8642 1.24252 15.2721 0.675908C14.6887 0.117594 13.9018 -0.0649414 13.1061 -0.0649414V1.93506ZM14.0646 2.8081V7.27713H16.0646V2.8081H14.0646ZM14.0646 7.27713C14.0646 7.74851 13.946 7.90793 13.8878 7.96349C13.8205 8.02769 13.6268 8.15017 13.1061 8.15017V10.1502C13.8998 10.1502 14.6853 9.96706 15.2687 9.4102C15.8612 8.84469 16.0646 8.06759 16.0646 7.27713H14.0646ZM10.451 0.920873C10.0366 0.920873 9.40004 0.952942 8.94452 1.40846C8.4815 1.87149 8.47829 2.50374 8.47829 2.8081H10.4783C10.4783 2.741 10.4801 2.69236 10.4829 2.65677C10.4856 2.62087 10.4887 2.60817 10.488 2.6111C10.4872 2.61473 10.4806 2.64241 10.4604 2.68299C10.4388 2.72599 10.4058 2.77563 10.3587 2.82268C10.312 2.86946 10.265 2.90007 10.2286 2.91851C10.1944 2.93583 10.1747 2.93987 10.1806 2.93847C10.1867 2.93699 10.2102 2.93209 10.2577 2.92787C10.3049 2.9237 10.3678 2.92087 10.451 2.92087V0.920873ZM8.47829 2.8081V7.27713H10.4783V2.8081H8.47829ZM8.47829 7.27713C8.47829 7.58149 8.4815 8.21374 8.94452 8.67677C9.40004 9.13229 10.0366 9.16436 10.451 9.16436V7.16436C10.3678 7.16436 10.3049 7.16153 10.2577 7.15736C10.2102 7.15315 10.1867 7.14824 10.1806 7.14676C10.1747 7.14537 10.1944 7.1494 10.2286 7.16673C10.265 7.18517 10.312 7.21577 10.3587 7.26256C10.4058 7.3096 10.4388 7.35924 10.4604 7.40224C10.4806 7.44282 10.4872 7.4705 10.488 7.47413C10.4887 7.47707 10.4856 7.46436 10.4829 7.42846C10.4801 7.39288 10.4783 7.34424 10.4783 7.27713H8.47829ZM10.451 9.16436H13.1061V7.16436H10.451V9.16436ZM13.1061 9.16436C13.5205 9.16436 14.157 9.13229 14.6125 8.67677C15.0755 8.21374 15.0788 7.58149 15.0788 7.27713H13.0788C13.0788 7.34424 13.077 7.39288 13.0742 7.42846C13.0714 7.46436 13.0684 7.47707 13.069 7.47413C13.0698 7.4705 13.0764 7.44282 13.0967 7.40224C13.1182 7.35924 13.1513 7.3096 13.1983 7.26256C13.2451 7.21577 13.2921 7.18517 13.3285 7.16673C13.3626 7.1494 13.3823 7.14537 13.3765 7.14676C13.3703 7.14824 13.3469 7.15315 13.2993 7.15736C13.2522 7.16153 13.1892 7.16436 13.1061 7.16436V9.16436ZM15.0788 7.27713V2.8081H13.0788V7.27713H15.0788ZM15.0788 2.8081C15.0788 2.50374 15.0755 1.87149 14.6125 1.40846C14.157 0.952942 13.5205 0.920873 13.1061 0.920873V2.92087C13.1892 2.92087 13.2522 2.9237 13.2993 2.92787C13.3469 2.93209 13.3703 2.93699 13.3765 2.93847C13.3823 2.93987 13.3626 2.93583 13.3285 2.91851C13.2921 2.90007 13.2451 2.86946 13.1983 2.82268C13.1513 2.77563 13.1182 2.72599 13.0967 2.68299C13.0764 2.64241 13.0698 2.61473 13.069 2.6111C13.0684 2.60817 13.0714 2.62087 13.0742 2.65677C13.077 2.69236 13.0788 2.741 13.0788 2.8081H15.0788ZM13.1061 0.920873H10.451V2.92087H13.1061V0.920873ZM13.1061 14.0651H10.451V16.0651H13.1061V14.0651ZM10.451 14.0651C9.92567 14.0651 9.73331 13.942 9.66774 13.8792C9.61084 13.8248 9.49248 13.6661 9.49248 13.192H7.49248C7.49248 13.9798 7.69286 14.7576 8.28496 15.3242C8.86838 15.8825 9.65526 16.0651 10.451 16.0651V14.0651ZM9.49248 13.192V12.009H7.49248V13.192H9.49248ZM9.49248 12.009C9.49248 11.5377 9.61109 11.3782 9.66929 11.3227C9.73654 11.2585 9.93022 11.136 10.451 11.136V9.13599C9.65728 9.13599 8.87172 9.3191 8.28834 9.87597C7.6959 10.4415 7.49248 11.2186 7.49248 12.009H9.49248ZM10.451 11.136H13.1061V9.13599H10.451V11.136ZM13.1061 11.136C13.6314 11.136 13.8237 11.2591 13.8893 11.3218C13.9462 11.3763 14.0646 11.535 14.0646 12.009H16.0646C16.0646 11.2212 15.8642 10.4435 15.2721 9.87684C14.6887 9.31852 13.9018 9.13599 13.1061 9.13599V11.136ZM14.0646 12.009V13.192H16.0646V12.009H14.0646ZM14.0646 13.192C14.0646 13.6634 13.946 13.8228 13.8878 13.8784C13.8205 13.9426 13.6268 14.0651 13.1061 14.0651V16.0651C13.8998 16.0651 14.6853 15.8819 15.2687 15.3251C15.8612 14.7596 16.0646 13.9825 16.0646 13.192H14.0646ZM10.451 10.1218C10.0366 10.1218 9.40004 10.1539 8.94452 10.6094C8.4815 11.0724 8.47829 11.7047 8.47829 12.009H10.4783C10.4783 11.9419 10.4801 11.8933 10.4829 11.8577C10.4856 11.8218 10.4887 11.8091 10.488 11.812C10.4872 11.8157 10.4806 11.8433 10.4604 11.8839C10.4388 11.9269 10.4058 11.9766 10.3587 12.0236C10.312 12.0704 10.265 12.101 10.2286 12.1194C10.1944 12.1368 10.1747 12.1408 10.1806 12.1394C10.1867 12.1379 10.2102 12.133 10.2577 12.1288C10.3049 12.1246 10.3678 12.1218 10.451 12.1218V10.1218ZM8.47829 12.009V13.192H10.4783V12.009H8.47829ZM8.47829 13.192C8.47829 13.4964 8.4815 14.1286 8.94452 14.5917C9.40004 15.0472 10.0366 15.0792 10.451 15.0792V13.0792C10.3678 13.0792 10.3049 13.0764 10.2577 13.0722C10.2102 13.068 10.1867 13.0631 10.1806 13.0616C10.1747 13.0602 10.1944 13.0643 10.2286 13.0816C10.265 13.1 10.312 13.1307 10.3587 13.1774C10.4058 13.2245 10.4388 13.2741 10.4604 13.3171C10.4806 13.3577 10.4872 13.3854 10.488 13.389C10.4887 13.3919 10.4856 13.3792 10.4829 13.3433C10.4801 13.3078 10.4783 13.2591 10.4783 13.192H8.47829ZM10.451 15.0792H13.1061V13.0792H10.451V15.0792ZM13.1061 15.0792C13.5205 15.0792 14.157 15.0472 14.6125 14.5917C15.0755 14.1286 15.0788 13.4964 15.0788 13.192H13.0788C13.0788 13.2591 13.077 13.3078 13.0742 13.3433C13.0714 13.3792 13.0684 13.3919 13.069 13.389C13.0698 13.3854 13.0764 13.3577 13.0967 13.3171C13.1182 13.2741 13.1513 13.2245 13.1983 13.1774C13.2451 13.1307 13.2921 13.1 13.3285 13.0816C13.3626 13.0643 13.3823 13.0602 13.3765 13.0616C13.3703 13.0631 13.3469 13.068 13.2993 13.0722C13.2522 13.0764 13.1892 13.0792 13.1061 13.0792V15.0792ZM15.0788 13.192V12.009H13.0788V13.192H15.0788ZM15.0788 12.009C15.0788 11.7047 15.0755 11.0724 14.6125 10.6094C14.157 10.1539 13.5205 10.1218 13.1061 10.1218V12.1218C13.1892 12.1218 13.2522 12.1246 13.2993 12.1288C13.3469 12.133 13.3703 12.1379 13.3765 12.1394C13.3823 12.1408 13.3626 12.1368 13.3285 12.1194C13.2921 12.101 13.2451 12.0704 13.1983 12.0236C13.1513 11.9766 13.1182 11.9269 13.0967 11.8839C13.0764 11.8433 13.0698 11.8157 13.069 11.812C13.0684 11.8091 13.0714 11.8218 13.0742 11.8577C13.077 11.8933 13.0788 11.9419 13.0788 12.009H15.0788ZM13.1061 10.1218H10.451V12.1218H13.1061V10.1218ZM5.54818 14.0651H2.89305V16.0651H5.54818V14.0651ZM2.89305 14.0651C2.36776 14.0651 2.1754 13.942 2.10983 13.8792C2.05293 13.8248 1.93457 13.6661 1.93457 13.192H-0.0654297C-0.0654297 13.9798 0.134956 14.7576 0.727052 15.3242C1.31048 15.8825 2.09736 16.0651 2.89305 16.0651V14.0651ZM1.93457 13.192V8.72299H-0.0654297V13.192H1.93457ZM1.93457 8.72299C1.93457 8.25161 2.05318 8.09218 2.11138 8.03663C2.17864 7.97243 2.37231 7.84994 2.89305 7.84994V5.84994C2.09938 5.84994 1.31381 6.03306 0.730429 6.58992C0.13799 7.15543 -0.0654297 7.93253 -0.0654297 8.72299H1.93457ZM2.89305 7.84994H5.54818V5.84994H2.89305V7.84994ZM5.54818 7.84994C6.07347 7.84994 6.26583 7.97301 6.3314 8.03576C6.3883 8.09021 6.50666 8.24894 6.50666 8.72299H8.50666C8.50666 7.93519 8.30628 7.15741 7.71418 6.59079C7.13076 6.03248 6.34388 5.84994 5.54818 5.84994V7.84994ZM6.50666 8.72299V13.192H8.50666V8.72299H6.50666ZM6.50666 13.192C6.50666 13.6634 6.38805 13.8228 6.32985 13.8784C6.2626 13.9426 6.06892 14.0651 5.54818 14.0651V16.0651C6.34186 16.0651 7.12742 15.8819 7.7108 15.3251C8.30324 14.7596 8.50666 13.9825 8.50666 13.192H6.50666ZM2.89305 6.83576C2.47867 6.83576 1.84214 6.86783 1.38662 7.32335C0.923592 7.78637 0.920384 8.41863 0.920384 8.72299H2.92038C2.92038 8.65588 2.92219 8.60724 2.92495 8.57166C2.92773 8.53576 2.93078 8.52305 2.93011 8.52599C2.92929 8.52962 2.92274 8.55729 2.90244 8.59788C2.88094 8.64087 2.84788 8.69052 2.80083 8.73756C2.75405 8.78435 2.70705 8.81495 2.67068 8.83339C2.63651 8.85071 2.61683 8.85475 2.62265 8.85335C2.6288 8.85187 2.65225 8.84697 2.69981 8.84276C2.74695 8.83858 2.80993 8.83576 2.89305 8.83576V6.83576ZM0.920384 8.72299V13.192H2.92038V8.72299H0.920384ZM0.920384 13.192C0.920384 13.4964 0.923592 14.1286 1.38662 14.5917C1.84214 15.0472 2.47867 15.0792 2.89305 15.0792V13.0792C2.80993 13.0792 2.74695 13.0764 2.69981 13.0722C2.65225 13.068 2.6288 13.0631 2.62265 13.0616C2.61683 13.0602 2.63651 13.0643 2.67068 13.0816C2.70705 13.1 2.75405 13.1307 2.80083 13.1774C2.84788 13.2245 2.88094 13.2741 2.90244 13.3171C2.92274 13.3577 2.92929 13.3854 2.93011 13.389C2.93078 13.3919 2.92773 13.3792 2.92495 13.3433C2.92219 13.3078 2.92038 13.2591 2.92038 13.192H0.920384ZM2.89305 15.0792H5.54818V13.0792H2.89305V15.0792ZM5.54818 15.0792C5.96256 15.0792 6.5991 15.0472 7.05462 14.5917C7.51764 14.1286 7.52085 13.4964 7.52085 13.192H5.52085C5.52085 13.2591 5.51905 13.3078 5.51629 13.3433C5.5135 13.3792 5.51045 13.3919 5.51112 13.389C5.51194 13.3854 5.51849 13.3577 5.53879 13.3171C5.56029 13.2741 5.59336 13.2245 5.6404 13.1774C5.68719 13.1307 5.73418 13.1 5.77055 13.0816C5.80473 13.0643 5.82441 13.0602 5.81859 13.0616C5.81243 13.0631 5.78898 13.068 5.74142 13.0722C5.69428 13.0764 5.6313 13.0792 5.54818 13.0792V15.0792ZM7.52085 13.192V8.72299H5.52085V13.192H7.52085ZM7.52085 8.72299C7.52085 8.41863 7.51764 7.78637 7.05462 7.32335C6.5991 6.86783 5.96256 6.83576 5.54818 6.83576V8.83576C5.6313 8.83576 5.69428 8.83858 5.74142 8.84276C5.78898 8.84697 5.81243 8.85187 5.81859 8.85335C5.82441 8.85475 5.80473 8.85071 5.77055 8.83339C5.73418 8.81495 5.68719 8.78435 5.6404 8.73756C5.59336 8.69052 5.56029 8.64087 5.53879 8.59788C5.51849 8.55729 5.51194 8.52962 5.51112 8.52599C5.51045 8.52305 5.5135 8.53576 5.51629 8.57166C5.51905 8.60724 5.52085 8.65588 5.52085 8.72299H7.52085ZM5.54818 6.83576H2.89305V8.83576H5.54818V6.83576ZM5.54818 4.86413H2.89305V6.86413H5.54818V4.86413ZM2.89305 4.86413C2.36776 4.86413 2.1754 4.74106 2.10983 4.67831C2.05293 4.62386 1.93457 4.46513 1.93457 3.99108H-0.0654297C-0.0654297 4.77888 0.134956 5.55667 0.727052 6.12328C1.31048 6.68159 2.09736 6.86413 2.89305 6.86413V4.86413ZM1.93457 3.99108V2.8081H-0.0654297V3.99108H1.93457ZM1.93457 2.8081C1.93457 2.33673 2.05318 2.1773 2.11138 2.12175C2.17864 2.05755 2.37231 1.93506 2.89305 1.93506V-0.0649414C2.09938 -0.0649414 1.31381 0.118172 0.730429 0.675036C0.13799 1.24055 -0.0654297 2.01764 -0.0654297 2.8081H1.93457ZM2.89305 1.93506H5.54818V-0.0649414H2.89305V1.93506ZM5.54818 1.93506C6.07347 1.93506 6.26583 2.05813 6.3314 2.12087C6.3883 2.17532 6.50666 2.33406 6.50666 2.8081H8.50666C8.50666 2.02031 8.30628 1.24252 7.71418 0.675908C7.13076 0.117594 6.34388 -0.0649414 5.54818 -0.0649414V1.93506ZM6.50666 2.8081V3.99108H8.50666V2.8081H6.50666ZM6.50666 3.99108C6.50666 4.46246 6.38805 4.62189 6.32985 4.67744C6.2626 4.74164 6.06892 4.86413 5.54818 4.86413V6.86413C6.34186 6.86413 7.12742 6.68102 7.7108 6.12415C8.30324 5.55864 8.50666 4.78154 8.50666 3.99108H6.50666ZM2.89305 0.920873C2.47867 0.920873 1.84214 0.952942 1.38662 1.40846C0.923592 1.87149 0.920384 2.50374 0.920384 2.8081H2.92038C2.92038 2.741 2.92219 2.69236 2.92495 2.65677C2.92773 2.62087 2.93078 2.60817 2.93011 2.6111C2.92929 2.61473 2.92274 2.64241 2.90244 2.68299C2.88094 2.72599 2.84788 2.77563 2.80083 2.82268C2.75405 2.86946 2.70705 2.90007 2.67068 2.91851C2.63651 2.93583 2.61683 2.93987 2.62265 2.93847C2.6288 2.93699 2.65225 2.93209 2.69981 2.92787C2.74695 2.9237 2.80993 2.92087 2.89305 2.92087V0.920873ZM0.920384 2.8081V3.99108H2.92038V2.8081H0.920384ZM0.920384 3.99108C0.920384 4.29544 0.923592 4.9277 1.38662 5.39072C1.84214 5.84624 2.47867 5.87831 2.89305 5.87831V3.87831C2.80993 3.87831 2.74695 3.87549 2.69981 3.87131C2.65225 3.8671 2.6288 3.8622 2.62265 3.86072C2.61683 3.85932 2.63651 3.86336 2.67068 3.88068C2.70705 3.89912 2.75405 3.92972 2.80083 3.97651C2.84788 4.02355 2.88094 4.0732 2.90244 4.11619C2.92274 4.15678 2.92929 4.18446 2.93011 4.18809C2.93078 4.19102 2.92773 4.17831 2.92495 4.14241C2.92219 4.10683 2.92038 4.05819 2.92038 3.99108H0.920384ZM2.89305 5.87831H5.54818V3.87831H2.89305V5.87831ZM5.54818 5.87831C5.96256 5.87831 6.5991 5.84624 7.05462 5.39072C7.51764 4.9277 7.52085 4.29544 7.52085 3.99108H5.52085C5.52085 4.05819 5.51905 4.10683 5.51629 4.14241C5.5135 4.17831 5.51045 4.19102 5.51112 4.18809C5.51194 4.18446 5.51849 4.15678 5.53879 4.11619C5.56029 4.0732 5.59336 4.02356 5.6404 3.97651C5.68719 3.92972 5.73418 3.89912 5.77055 3.88068C5.80473 3.86336 5.82441 3.85932 5.81859 3.86072C5.81243 3.8622 5.78898 3.8671 5.74142 3.87131C5.69428 3.87549 5.6313 3.87831 5.54818 3.87831V5.87831ZM7.52085 3.99108V2.8081H5.52085V3.99108H7.52085ZM7.52085 2.8081C7.52085 2.50374 7.51764 1.87149 7.05462 1.40846C6.5991 0.952942 5.96256 0.920873 5.54818 0.920873V2.92087C5.6313 2.92087 5.69428 2.9237 5.74142 2.92787C5.78898 2.93209 5.81243 2.93699 5.81859 2.93847C5.82441 2.93987 5.80473 2.93583 5.77055 2.91851C5.73418 2.90007 5.68719 2.86946 5.6404 2.82268C5.59336 2.77563 5.56029 2.72599 5.53879 2.68299C5.51849 2.64241 5.51194 2.61473 5.51112 2.6111C5.51045 2.60817 5.5135 2.62087 5.51629 2.65677C5.51905 2.69236 5.52085 2.741 5.52085 2.8081H7.52085ZM5.54818 0.920873H2.89305V2.92087H5.54818V0.920873Z" fill="#A6A6A6" mask="url(#path-1-inside-1_12917_16777)"/>
</svg>
