<svg width="556" height="928" viewBox="0 0 554 928" fill="none" xmlns="http://www.w3.org/2000/svg">
    <path
        d="M-721.941 1222.72-.278-760.031M-716.303 1224.77 5.36-757.979M-710.665 1226.82 10.998-755.927M-705.026 1228.88 16.636-753.875M-699.388 1230.93 22.274-751.823M-693.75 1232.98 27.913-749.771M-688.112 1235.03 33.551-747.719M-682.474 1237.08 39.189-745.667M-676.835 1239.14 44.827-743.614M-671.197 1241.19 50.465-741.562M-665.559 1243.24 56.103-739.51m-716.024 1984.8L61.741-737.458M-654.283 1247.35 67.379-735.406M-648.645 1249.4 73.018-733.354M-643.007 1251.45 78.656-731.302M-637.369 1253.5 84.294-729.25m-716.024 1984.8L89.932-727.197M-626.092 1257.61 95.57-725.145M-620.454 1259.66 101.208-723.093M-614.816 1261.71 106.847-721.041M-609.178 1263.76 112.485-718.989M-603.54 1265.81 118.123-716.937M-597.901 1267.87 123.761-714.885M-592.263 1269.92 129.399-712.833M-586.625 1271.97 135.038-710.781M-580.987 1274.02 140.676-708.728M-575.349 1276.08 146.314-706.676M-569.71 1278.13 151.952-704.624M-564.072 1280.18 157.59-702.572M-558.435 1282.23 163.228-700.52m-716.024 1984.8L168.866-698.468M-547.158 1286.34 174.504-696.416M-541.52 1288.39 180.143-694.364M-535.882 1290.44 185.781-692.311M-530.244 1292.49 191.419-690.259M-524.605 1294.54 197.057-688.207M-518.967 1296.6 202.695-686.155M-513.329 1298.65 208.333-684.103M-507.691 1300.7 213.972-682.051M-502.053 1302.75 219.61-679.999M-496.415 1304.8 225.248-677.947M-490.776 1306.86 230.886-675.895M-485.138 1308.91 236.524-673.842M-479.5 1310.96 242.163-671.79m-716.025 1984.8L247.801-669.738M-468.224 1315.07 253.439-667.686M-462.586 1317.12 259.077-665.634M-456.948 1319.17 264.715-663.582M-451.31 1321.22 270.353-661.53m-716.024 1984.8L275.991-659.478M-440.033 1325.33 281.629-657.425M-434.395 1327.38 287.268-655.373M-428.757 1329.43 292.906-653.321M-423.119 1331.48 298.544-651.269M-417.48 1333.53 304.182-649.217M-411.842 1335.59 309.82-647.165M-406.204 1337.64 315.458-645.113M-400.566 1339.69 321.097-643.061M-394.928 1341.74 326.735-641.008M-389.29 1343.8 332.373-638.956M-383.651 1345.85 338.011-636.904M-378.013 1347.9 343.649-634.852M-372.375 1349.95 349.288-632.8M-366.737 1352 354.926-630.748M-361.099 1354.06 360.563-628.696M-355.461 1356.11 366.202-626.644M-349.823 1358.16 371.84-624.591M-344.185 1360.21 377.478-622.539M-338.546 1362.26 383.116-620.487M-332.908 1364.32 388.754-618.435M-327.27 1366.37 394.393-616.383M-321.632 1368.42 400.031-614.331M-315.994 1370.47 405.669-612.279M-310.355 1372.52 411.307-610.227M-304.717 1374.58 416.945-608.174M-299.079 1376.63 422.583-606.122M-293.441 1378.68 428.222-604.07m-716.025 1984.8L433.86-602.018M-282.165 1382.79 439.498-599.966M-276.526 1384.84 445.136-597.914M-270.888 1386.89 450.774-595.862M-265.25 1388.94 456.412-593.81m-716.024 1984.8L462.05-591.758M-253.974 1393.05 467.688-589.705M-248.336 1395.1 473.327-587.653M-242.698 1397.15 478.965-585.601M-237.06 1399.2 484.603-583.549M-231.421 1401.25 490.241-581.497M-225.783 1403.31 495.879-579.445M-220.145 1405.36 501.518-577.393M-214.507 1407.41 507.156-575.341M-208.869 1409.46 512.794-573.288M-203.23 1411.52 518.432-571.236M-197.592 1413.57 524.07-569.184M-191.954 1415.62 529.708-567.132M-186.316 1417.67 535.347-565.08m-716.025 1984.8L540.985-563.028M-175.04 1421.78 546.623-560.976M-169.401 1423.83 552.261-558.924M-163.764 1425.88 557.899-556.872M-158.125 1427.93 563.537-554.819M-152.487 1429.98 569.175-552.767M-146.849 1432.04 574.813-550.715M-141.211 1434.09 580.452-548.663M-135.573 1436.14 586.09-546.611M-129.935 1438.19 591.728-544.559M-124.296 1440.24 597.366-542.507M-118.658 1442.3 603.004-540.455M-113.02 1444.35 608.643-538.402M-107.382 1446.4 614.281-536.35m-716.025 1984.8L619.919-534.298M-96.106 1450.51 625.558-532.246M-90.467 1452.56 631.195-530.194M-84.83 1454.61 636.834-528.142M-79.19 1456.66 642.471-526.09m-716.024 1984.8L648.11-524.038M-67.915 1460.77 653.747-521.985M-62.277 1462.82 659.386-519.933M-56.639 1464.87 665.024-517.881M-51 1466.92 670.662-515.829M-45.362 1468.97 676.3-513.777M-39.724 1471.03 681.938-511.725M-34.086 1473.08 687.577-509.673M-28.448 1475.13 693.215-507.621M-22.81 1477.18 698.853-505.568M-17.171 1479.24 704.49-503.516M-11.533 1481.29 710.129-501.464M-5.895 1483.34 715.768-499.412M-.257 1485.39 721.406-497.36M5.381 1487.44 727.044-495.308M11.02 1489.5 732.682-493.256M16.658 1491.55 738.32-491.204M22.296 1493.6 743.958-489.151M27.934 1495.65 749.597-487.099M33.572 1497.7 755.234-485.047M39.21 1499.76 760.872-482.995M44.848 1501.81 766.511-480.943M50.486 1503.86 772.15-478.891M56.124 1505.91 777.788-476.839M61.763 1507.96 783.425-474.787M67.4 1510.02 789.064-472.735M73.04 1512.07 794.701-470.682M78.677 1514.12 800.34-468.63M84.315 1516.17 805.978-466.578M89.954 1518.23 811.616-464.526M95.592 1520.28 817.254-462.474M101.23 1522.33 822.893-460.422M106.868 1524.38 828.531-458.37m-716.025 1984.8L834.169-456.318M118.145 1528.49 839.807-454.265M123.783 1530.54 845.445-452.213M129.42 1532.59 851.083-450.161M135.059 1534.64 856.721-448.109M140.697 1536.69 862.359-446.057M146.335 1538.75 867.997-444.005M151.973 1540.8 873.636-441.953M157.611 1542.85 879.274-439.901M163.25 1544.9 884.912-437.848M168.888 1546.96 890.55-435.796M174.526 1549.01 896.188-433.744M180.164 1551.06 901.827-431.692M185.802 1553.11 907.465-429.64M191.44 1555.16 913.103-427.588M197.079 1557.22 918.741-425.536M202.717 1559.27 924.379-423.484M208.355 1561.32 930.018-421.431M213.993 1563.37 935.656-419.379M219.631 1565.42 941.294-417.327M225.27 1567.48 946.932-415.275M230.907 1569.53 952.57-413.223M236.545 1571.58 958.208-411.171M242.184 1573.63 963.846-409.119M247.822 1575.68 969.484-407.067M253.46 1577.74 975.122-405.015M259.098 1579.79 980.761-402.962M264.736 1581.84 986.399-400.91m-716.024 1984.8L992.037-398.858M276.013 1585.95 997.675-396.806M281.651 1588 1003.31-394.754M287.289 1590.05 1008.95-392.702M292.927 1592.1 1014.59-390.65m-716.025 1984.8L1020.23-388.598M304.204 1596.21 1025.87-386.545M309.842 1598.26 1031.5-384.493M315.48 1600.31l721.66-1982.751M321.118 1602.36 1042.78-380.389M326.756 1604.41 1048.42-378.337M332.394 1606.47 1054.06-376.285M338.032 1608.52 1059.69-374.233M343.67 1610.57l721.66-1982.751M349.309 1612.62 1070.97-370.128M354.947 1614.68 1076.61-368.076M360.585 1616.73 1082.25-366.024M366.223 1618.78 1087.89-363.972M371.861 1620.83 1093.52-361.92M377.5 1622.88l721.66-1982.748M383.138 1624.94 1104.8-357.816M388.776 1626.99 1110.44-355.764M394.414 1629.04 1116.08-353.712M400.052 1631.09 1121.71-351.659M405.69 1633.14l721.66-1982.747M411.329 1635.2 1132.99-347.555M416.967 1637.25 1138.63-345.503M422.605 1639.3 1144.27-343.451M428.243 1641.35 1149.91-341.399M433.881 1643.4 1155.54-339.347M439.519 1645.46 1161.18-337.295M445.157 1647.51 1166.82-335.242M450.795 1649.56 1172.46-333.19m-716.026 1984.8L1178.1-331.138M462.072 1653.67 1183.73-329.086M467.71 1655.72l721.66-1982.754M473.348 1657.77 1195.01-324.982M478.986 1659.82 1200.65-322.93m-716.025 1984.8L1206.29-320.878M490.263 1663.93 1211.93-318.825M495.901 1665.98 1217.56-316.773M501.539 1668.03 1223.2-314.721M507.177 1670.08 1228.84-312.669M512.815 1672.13 1234.48-310.617M518.454 1674.19 1240.12-308.565M524.091 1676.24 1245.75-306.513M529.729 1678.29 1251.39-304.461M535.368 1680.34 1257.03-302.408M541.006 1682.4 1262.67-300.356M546.644 1684.45 1268.31-298.304M552.282 1686.5 1273.94-296.252M557.92 1688.55 1279.58-294.2"
        stroke="#BABABA" stroke-opacity=".1" stroke-width="2" />
</svg>