<svg width="557" height="928" viewBox="0 0 557 928" fill="none" xmlns="http://www.w3.org/2000/svg">
    <path d="M-721.941 1222.72L-0.278384 -760.031" stroke="#BABABA" stroke-opacity="0.1" stroke-width="2" />
    <path d="M-716.303 1224.77L5.3598 -757.979" stroke="#BABABA" stroke-opacity="0.1" stroke-width="2" />
    <path d="M-710.665 1226.82L10.998 -755.927" stroke="#BABABA" stroke-opacity="0.1" stroke-width="2" />
    <path d="M-705.026 1228.88L16.6362 -753.875" stroke="#BABABA" stroke-opacity="0.1" stroke-width="2" />
    <path d="M-699.388 1230.93L22.2744 -751.823" stroke="#BABABA" stroke-opacity="0.1" stroke-width="2" />
    <path d="M-693.75 1232.98L27.9125 -749.771" stroke="#BABABA" stroke-opacity="0.1" stroke-width="2" />
    <path d="M-688.112 1235.03L33.5507 -747.719" stroke="#BABABA" stroke-opacity="0.1" stroke-width="2" />
    <path d="M-682.474 1237.08L39.1889 -745.667" stroke="#BABABA" stroke-opacity="0.1" stroke-width="2" />
    <path d="M-676.835 1239.14L44.8271 -743.614" stroke="#BABABA" stroke-opacity="0.1" stroke-width="2" />
    <path d="M-671.197 1241.19L50.4653 -741.562" stroke="#BABABA" stroke-opacity="0.1" stroke-width="2" />
    <path d="M-665.559 1243.24L56.1035 -739.51" stroke="#BABABA" stroke-opacity="0.1" stroke-width="2" />
    <path d="M-659.921 1245.29L61.7411 -737.458" stroke="#BABABA" stroke-opacity="0.1" stroke-width="2" />
    <path d="M-654.283 1247.35L67.3793 -735.406" stroke="#BABABA" stroke-opacity="0.1" stroke-width="2" />
    <path d="M-648.645 1249.4L73.0175 -733.354" stroke="#BABABA" stroke-opacity="0.1" stroke-width="2" />
    <path d="M-643.007 1251.45L78.6557 -731.302" stroke="#BABABA" stroke-opacity="0.1" stroke-width="2" />
    <path d="M-637.369 1253.5L84.2939 -729.25" stroke="#BABABA" stroke-opacity="0.1" stroke-width="2" />
    <path d="M-631.73 1255.55L89.9321 -727.197" stroke="#BABABA" stroke-opacity="0.1" stroke-width="2" />
    <path d="M-626.092 1257.61L95.5702 -725.145" stroke="#BABABA" stroke-opacity="0.1" stroke-width="2" />
    <path d="M-620.454 1259.66L101.208 -723.093" stroke="#BABABA" stroke-opacity="0.1" stroke-width="2" />
    <path d="M-614.816 1261.71L106.847 -721.041" stroke="#BABABA" stroke-opacity="0.1" stroke-width="2" />
    <path d="M-609.178 1263.76L112.485 -718.989" stroke="#BABABA" stroke-opacity="0.1" stroke-width="2" />
    <path d="M-603.54 1265.81L118.123 -716.937" stroke="#BABABA" stroke-opacity="0.1" stroke-width="2" />
    <path d="M-597.901 1267.87L123.761 -714.885" stroke="#BABABA" stroke-opacity="0.1" stroke-width="2" />
    <path d="M-592.263 1269.92L129.399 -712.833" stroke="#BABABA" stroke-opacity="0.1" stroke-width="2" />
    <path d="M-586.625 1271.97L135.038 -710.781" stroke="#BABABA" stroke-opacity="0.1" stroke-width="2" />
    <path d="M-580.987 1274.02L140.676 -708.728" stroke="#BABABA" stroke-opacity="0.1" stroke-width="2" />
    <path d="M-575.349 1276.08L146.314 -706.676" stroke="#BABABA" stroke-opacity="0.1" stroke-width="2" />
    <path d="M-569.71 1278.13L151.952 -704.624" stroke="#BABABA" stroke-opacity="0.1" stroke-width="2" />
    <path d="M-564.072 1280.18L157.59 -702.572" stroke="#BABABA" stroke-opacity="0.1" stroke-width="2" />
    <path d="M-558.435 1282.23L163.228 -700.52" stroke="#BABABA" stroke-opacity="0.1" stroke-width="2" />
    <path d="M-552.796 1284.28L168.866 -698.468" stroke="#BABABA" stroke-opacity="0.1" stroke-width="2" />
    <path d="M-547.158 1286.34L174.504 -696.416" stroke="#BABABA" stroke-opacity="0.1" stroke-width="2" />
    <path d="M-541.52 1288.39L180.143 -694.364" stroke="#BABABA" stroke-opacity="0.1" stroke-width="2" />
    <path d="M-535.882 1290.44L185.781 -692.311" stroke="#BABABA" stroke-opacity="0.1" stroke-width="2" />
    <path d="M-530.244 1292.49L191.419 -690.259" stroke="#BABABA" stroke-opacity="0.1" stroke-width="2" />
    <path d="M-524.605 1294.54L197.057 -688.207" stroke="#BABABA" stroke-opacity="0.1" stroke-width="2" />
    <path d="M-518.967 1296.6L202.695 -686.155" stroke="#BABABA" stroke-opacity="0.1" stroke-width="2" />
    <path d="M-513.329 1298.65L208.333 -684.103" stroke="#BABABA" stroke-opacity="0.1" stroke-width="2" />
    <path d="M-507.691 1300.7L213.972 -682.051" stroke="#BABABA" stroke-opacity="0.1" stroke-width="2" />
    <path d="M-502.053 1302.75L219.61 -679.999" stroke="#BABABA" stroke-opacity="0.1" stroke-width="2" />
    <path d="M-496.415 1304.8L225.248 -677.947" stroke="#BABABA" stroke-opacity="0.1" stroke-width="2" />
    <path d="M-490.776 1306.86L230.886 -675.895" stroke="#BABABA" stroke-opacity="0.1" stroke-width="2" />
    <path d="M-485.138 1308.91L236.524 -673.842" stroke="#BABABA" stroke-opacity="0.1" stroke-width="2" />
    <path d="M-479.5 1310.96L242.163 -671.79" stroke="#BABABA" stroke-opacity="0.1" stroke-width="2" />
    <path d="M-473.862 1313.01L247.801 -669.738" stroke="#BABABA" stroke-opacity="0.1" stroke-width="2" />
    <path d="M-468.224 1315.07L253.439 -667.686" stroke="#BABABA" stroke-opacity="0.1" stroke-width="2" />
    <path d="M-462.586 1317.12L259.077 -665.634" stroke="#BABABA" stroke-opacity="0.1" stroke-width="2" />
    <path d="M-456.948 1319.17L264.715 -663.582" stroke="#BABABA" stroke-opacity="0.1" stroke-width="2" />
    <path d="M-451.31 1321.22L270.353 -661.53" stroke="#BABABA" stroke-opacity="0.1" stroke-width="2" />
    <path d="M-445.671 1323.27L275.991 -659.478" stroke="#BABABA" stroke-opacity="0.1" stroke-width="2" />
    <path d="M-440.033 1325.33L281.629 -657.425" stroke="#BABABA" stroke-opacity="0.1" stroke-width="2" />
    <path d="M-434.395 1327.38L287.268 -655.373" stroke="#BABABA" stroke-opacity="0.1" stroke-width="2" />
    <path d="M-428.757 1329.43L292.906 -653.321" stroke="#BABABA" stroke-opacity="0.1" stroke-width="2" />
    <path d="M-423.119 1331.48L298.544 -651.269" stroke="#BABABA" stroke-opacity="0.1" stroke-width="2" />
    <path d="M-417.48 1333.53L304.182 -649.217" stroke="#BABABA" stroke-opacity="0.1" stroke-width="2" />
    <path d="M-411.842 1335.59L309.82 -647.165" stroke="#BABABA" stroke-opacity="0.1" stroke-width="2" />
    <path d="M-406.204 1337.64L315.458 -645.113" stroke="#BABABA" stroke-opacity="0.1" stroke-width="2" />
    <path d="M-400.566 1339.69L321.097 -643.061" stroke="#BABABA" stroke-opacity="0.1" stroke-width="2" />
    <path d="M-394.928 1341.74L326.735 -641.008" stroke="#BABABA" stroke-opacity="0.1" stroke-width="2" />
    <path d="M-389.29 1343.8L332.373 -638.956" stroke="#BABABA" stroke-opacity="0.1" stroke-width="2" />
    <path d="M-383.651 1345.85L338.011 -636.904" stroke="#BABABA" stroke-opacity="0.1" stroke-width="2" />
    <path d="M-378.013 1347.9L343.649 -634.852" stroke="#BABABA" stroke-opacity="0.1" stroke-width="2" />
    <path d="M-372.375 1349.95L349.288 -632.8" stroke="#BABABA" stroke-opacity="0.1" stroke-width="2" />
    <path d="M-366.737 1352L354.926 -630.748" stroke="#BABABA" stroke-opacity="0.1" stroke-width="2" />
    <path d="M-361.099 1354.06L360.563 -628.696" stroke="#BABABA" stroke-opacity="0.1" stroke-width="2" />
    <path d="M-355.461 1356.11L366.202 -626.644" stroke="#BABABA" stroke-opacity="0.1" stroke-width="2" />
    <path d="M-349.823 1358.16L371.84 -624.591" stroke="#BABABA" stroke-opacity="0.1" stroke-width="2" />
    <path d="M-344.185 1360.21L377.478 -622.539" stroke="#BABABA" stroke-opacity="0.1" stroke-width="2" />
    <path d="M-338.546 1362.26L383.116 -620.487" stroke="#BABABA" stroke-opacity="0.1" stroke-width="2" />
    <path d="M-332.908 1364.32L388.754 -618.435" stroke="#BABABA" stroke-opacity="0.1" stroke-width="2" />
    <path d="M-327.27 1366.37L394.393 -616.383" stroke="#BABABA" stroke-opacity="0.1" stroke-width="2" />
    <path d="M-321.632 1368.42L400.031 -614.331" stroke="#BABABA" stroke-opacity="0.1" stroke-width="2" />
    <path d="M-315.994 1370.47L405.669 -612.279" stroke="#BABABA" stroke-opacity="0.1" stroke-width="2" />
    <path d="M-310.355 1372.52L411.307 -610.227" stroke="#BABABA" stroke-opacity="0.1" stroke-width="2" />
    <path d="M-304.717 1374.58L416.945 -608.174" stroke="#BABABA" stroke-opacity="0.1" stroke-width="2" />
    <path d="M-299.079 1376.63L422.583 -606.122" stroke="#BABABA" stroke-opacity="0.1" stroke-width="2" />
    <path d="M-293.441 1378.68L428.222 -604.07" stroke="#BABABA" stroke-opacity="0.1" stroke-width="2" />
    <path d="M-287.803 1380.73L433.86 -602.018" stroke="#BABABA" stroke-opacity="0.1" stroke-width="2" />
    <path d="M-282.165 1382.79L439.498 -599.966" stroke="#BABABA" stroke-opacity="0.1" stroke-width="2" />
    <path d="M-276.526 1384.84L445.136 -597.914" stroke="#BABABA" stroke-opacity="0.1" stroke-width="2" />
    <path d="M-270.888 1386.89L450.774 -595.862" stroke="#BABABA" stroke-opacity="0.1" stroke-width="2" />
    <path d="M-265.25 1388.94L456.412 -593.81" stroke="#BABABA" stroke-opacity="0.1" stroke-width="2" />
    <path d="M-259.612 1390.99L462.05 -591.758" stroke="#BABABA" stroke-opacity="0.1" stroke-width="2" />
    <path d="M-253.974 1393.05L467.688 -589.705" stroke="#BABABA" stroke-opacity="0.1" stroke-width="2" />
    <path d="M-248.336 1395.1L473.327 -587.653" stroke="#BABABA" stroke-opacity="0.1" stroke-width="2" />
    <path d="M-242.698 1397.15L478.965 -585.601" stroke="#BABABA" stroke-opacity="0.1" stroke-width="2" />
    <path d="M-237.06 1399.2L484.603 -583.549" stroke="#BABABA" stroke-opacity="0.1" stroke-width="2" />
    <path d="M-231.421 1401.25L490.241 -581.497" stroke="#BABABA" stroke-opacity="0.1" stroke-width="2" />
    <path d="M-225.783 1403.31L495.879 -579.445" stroke="#BABABA" stroke-opacity="0.1" stroke-width="2" />
    <path d="M-220.145 1405.36L501.518 -577.393" stroke="#BABABA" stroke-opacity="0.1" stroke-width="2" />
    <path d="M-214.507 1407.41L507.156 -575.341" stroke="#BABABA" stroke-opacity="0.1" stroke-width="2" />
    <path d="M-208.869 1409.46L512.794 -573.288" stroke="#BABABA" stroke-opacity="0.1" stroke-width="2" />
    <path d="M-203.23 1411.52L518.432 -571.236" stroke="#BABABA" stroke-opacity="0.1" stroke-width="2" />
    <path d="M-197.592 1413.57L524.07 -569.184" stroke="#BABABA" stroke-opacity="0.1" stroke-width="2" />
    <path d="M-191.954 1415.62L529.708 -567.132" stroke="#BABABA" stroke-opacity="0.1" stroke-width="2" />
    <path d="M-186.316 1417.67L535.347 -565.08" stroke="#BABABA" stroke-opacity="0.1" stroke-width="2" />
    <path d="M-180.678 1419.72L540.985 -563.028" stroke="#BABABA" stroke-opacity="0.1" stroke-width="2" />
    <path d="M-175.04 1421.78L546.623 -560.976" stroke="#BABABA" stroke-opacity="0.1" stroke-width="2" />
    <path d="M-169.401 1423.83L552.261 -558.924" stroke="#BABABA" stroke-opacity="0.1" stroke-width="2" />
    <path d="M-163.764 1425.88L557.899 -556.872" stroke="#BABABA" stroke-opacity="0.1" stroke-width="2" />
    <path d="M-158.125 1427.93L563.537 -554.819" stroke="#BABABA" stroke-opacity="0.1" stroke-width="2" />
    <path d="M-152.487 1429.98L569.175 -552.767" stroke="#BABABA" stroke-opacity="0.1" stroke-width="2" />
    <path d="M-146.849 1432.04L574.813 -550.715" stroke="#BABABA" stroke-opacity="0.1" stroke-width="2" />
    <path d="M-141.211 1434.09L580.452 -548.663" stroke="#BABABA" stroke-opacity="0.1" stroke-width="2" />
    <path d="M-135.573 1436.14L586.09 -546.611" stroke="#BABABA" stroke-opacity="0.1" stroke-width="2" />
    <path d="M-129.935 1438.19L591.728 -544.559" stroke="#BABABA" stroke-opacity="0.1" stroke-width="2" />
    <path d="M-124.296 1440.24L597.366 -542.507" stroke="#BABABA" stroke-opacity="0.1" stroke-width="2" />
    <path d="M-118.658 1442.3L603.004 -540.455" stroke="#BABABA" stroke-opacity="0.1" stroke-width="2" />
    <path d="M-113.02 1444.35L608.643 -538.402" stroke="#BABABA" stroke-opacity="0.1" stroke-width="2" />
    <path d="M-107.382 1446.4L614.281 -536.35" stroke="#BABABA" stroke-opacity="0.1" stroke-width="2" />
    <path d="M-101.744 1448.45L619.919 -534.298" stroke="#BABABA" stroke-opacity="0.1" stroke-width="2" />
    <path d="M-96.1055 1450.51L625.557 -532.246" stroke="#BABABA" stroke-opacity="0.1" stroke-width="2" />
    <path d="M-90.4673 1452.56L631.195 -530.194" stroke="#BABABA" stroke-opacity="0.1" stroke-width="2" />
    <path d="M-84.8291 1454.61L636.833 -528.142" stroke="#BABABA" stroke-opacity="0.1" stroke-width="2" />
    <path d="M-79.1909 1456.66L642.472 -526.09" stroke="#BABABA" stroke-opacity="0.1" stroke-width="2" />
    <path d="M-73.5527 1458.71L648.11 -524.038" stroke="#BABABA" stroke-opacity="0.1" stroke-width="2" />
    <path d="M-67.915 1460.77L653.747 -521.985" stroke="#BABABA" stroke-opacity="0.1" stroke-width="2" />
    <path d="M-62.2769 1462.82L659.386 -519.933" stroke="#BABABA" stroke-opacity="0.1" stroke-width="2" />
    <path d="M-56.6387 1464.87L665.024 -517.881" stroke="#BABABA" stroke-opacity="0.1" stroke-width="2" />
    <path d="M-51.0005 1466.92L670.662 -515.829" stroke="#BABABA" stroke-opacity="0.1" stroke-width="2" />
    <path d="M-45.3623 1468.97L676.3 -513.777" stroke="#BABABA" stroke-opacity="0.1" stroke-width="2" />
    <path d="M-39.7241 1471.03L681.938 -511.725" stroke="#BABABA" stroke-opacity="0.1" stroke-width="2" />
    <path d="M-34.0859 1473.08L687.577 -509.673" stroke="#BABABA" stroke-opacity="0.1" stroke-width="2" />
    <path d="M-28.4478 1475.13L693.215 -507.621" stroke="#BABABA" stroke-opacity="0.1" stroke-width="2" />
    <path d="M-22.8096 1477.18L698.853 -505.568" stroke="#BABABA" stroke-opacity="0.1" stroke-width="2" />
    <path d="M-17.1714 1479.24L704.491 -503.516" stroke="#BABABA" stroke-opacity="0.1" stroke-width="2" />
    <path d="M-11.5332 1481.29L710.129 -501.464" stroke="#BABABA" stroke-opacity="0.1" stroke-width="2" />
    <path d="M-5.89502 1483.34L715.768 -499.412" stroke="#BABABA" stroke-opacity="0.1" stroke-width="2" />
    <path d="M-0.256836 1485.39L721.406 -497.36" stroke="#BABABA" stroke-opacity="0.1" stroke-width="2" />
    <path d="M5.38135 1487.44L727.044 -495.308" stroke="#BABABA" stroke-opacity="0.1" stroke-width="2" />
    <path d="M11.0195 1489.5L732.682 -493.256" stroke="#BABABA" stroke-opacity="0.1" stroke-width="2" />
    <path d="M16.6577 1491.55L738.32 -491.204" stroke="#BABABA" stroke-opacity="0.1" stroke-width="2" />
    <path d="M22.2959 1493.6L743.958 -489.151" stroke="#BABABA" stroke-opacity="0.1" stroke-width="2" />
    <path d="M27.9341 1495.65L749.597 -487.099" stroke="#BABABA" stroke-opacity="0.1" stroke-width="2" />
    <path d="M33.5718 1497.7L755.234 -485.047" stroke="#BABABA" stroke-opacity="0.1" stroke-width="2" />
    <path d="M39.21 1499.76L760.872 -482.995" stroke="#BABABA" stroke-opacity="0.1" stroke-width="2" />
    <path d="M44.8481 1501.81L766.511 -480.943" stroke="#BABABA" stroke-opacity="0.1" stroke-width="2" />
    <path d="M50.4863 1503.86L772.149 -478.891" stroke="#BABABA" stroke-opacity="0.1" stroke-width="2" />
    <path d="M56.1245 1505.91L777.787 -476.839" stroke="#BABABA" stroke-opacity="0.1" stroke-width="2" />
    <path d="M61.7627 1507.96L783.425 -474.787" stroke="#BABABA" stroke-opacity="0.1" stroke-width="2" />
    <path d="M67.4009 1510.02L789.063 -472.735" stroke="#BABABA" stroke-opacity="0.1" stroke-width="2" />
    <path d="M73.0391 1512.07L794.702 -470.682" stroke="#BABABA" stroke-opacity="0.1" stroke-width="2" />
    <path d="M78.6772 1514.12L800.34 -468.63" stroke="#BABABA" stroke-opacity="0.1" stroke-width="2" />
    <path d="M84.3154 1516.17L805.978 -466.578" stroke="#BABABA" stroke-opacity="0.1" stroke-width="2" />
    <path d="M89.9536 1518.23L811.616 -464.526" stroke="#BABABA" stroke-opacity="0.1" stroke-width="2" />
    <path d="M95.5918 1520.28L817.254 -462.474" stroke="#BABABA" stroke-opacity="0.1" stroke-width="2" />
    <path d="M101.23 1522.33L822.893 -460.422" stroke="#BABABA" stroke-opacity="0.1" stroke-width="2" />
    <path d="M106.868 1524.38L828.531 -458.37" stroke="#BABABA" stroke-opacity="0.1" stroke-width="2" />
    <path d="M112.506 1526.43L834.169 -456.318" stroke="#BABABA" stroke-opacity="0.1" stroke-width="2" />
    <path d="M118.145 1528.49L839.807 -454.265" stroke="#BABABA" stroke-opacity="0.1" stroke-width="2" />
    <path d="M123.783 1530.54L845.445 -452.213" stroke="#BABABA" stroke-opacity="0.1" stroke-width="2" />
    <path d="M129.42 1532.59L851.083 -450.161" stroke="#BABABA" stroke-opacity="0.1" stroke-width="2" />
    <path d="M135.059 1534.64L856.721 -448.109" stroke="#BABABA" stroke-opacity="0.1" stroke-width="2" />
    <path d="M140.697 1536.69L862.359 -446.057" stroke="#BABABA" stroke-opacity="0.1" stroke-width="2" />
    <path d="M146.335 1538.75L867.997 -444.005" stroke="#BABABA" stroke-opacity="0.1" stroke-width="2" />
    <path d="M151.973 1540.8L873.636 -441.953" stroke="#BABABA" stroke-opacity="0.1" stroke-width="2" />
    <path d="M157.611 1542.85L879.274 -439.901" stroke="#BABABA" stroke-opacity="0.1" stroke-width="2" />
    <path d="M163.25 1544.9L884.912 -437.848" stroke="#BABABA" stroke-opacity="0.1" stroke-width="2" />
    <path d="M168.888 1546.96L890.55 -435.796" stroke="#BABABA" stroke-opacity="0.1" stroke-width="2" />
    <path d="M174.526 1549.01L896.188 -433.744" stroke="#BABABA" stroke-opacity="0.1" stroke-width="2" />
    <path d="M180.164 1551.06L901.827 -431.692" stroke="#BABABA" stroke-opacity="0.1" stroke-width="2" />
    <path d="M185.802 1553.11L907.465 -429.64" stroke="#BABABA" stroke-opacity="0.1" stroke-width="2" />
    <path d="M191.44 1555.16L913.103 -427.588" stroke="#BABABA" stroke-opacity="0.1" stroke-width="2" />
    <path d="M197.079 1557.22L918.741 -425.536" stroke="#BABABA" stroke-opacity="0.1" stroke-width="2" />
    <path d="M202.717 1559.27L924.379 -423.484" stroke="#BABABA" stroke-opacity="0.1" stroke-width="2" />
    <path d="M208.355 1561.32L930.018 -421.431" stroke="#BABABA" stroke-opacity="0.1" stroke-width="2" />
    <path d="M213.993 1563.37L935.656 -419.379" stroke="#BABABA" stroke-opacity="0.1" stroke-width="2" />
    <path d="M219.631 1565.42L941.294 -417.327" stroke="#BABABA" stroke-opacity="0.1" stroke-width="2" />
    <path d="M225.27 1567.48L946.932 -415.275" stroke="#BABABA" stroke-opacity="0.1" stroke-width="2" />
    <path d="M230.907 1569.53L952.57 -413.223" stroke="#BABABA" stroke-opacity="0.1" stroke-width="2" />
    <path d="M236.545 1571.58L958.208 -411.171" stroke="#BABABA" stroke-opacity="0.1" stroke-width="2" />
    <path d="M242.184 1573.63L963.846 -409.119" stroke="#BABABA" stroke-opacity="0.1" stroke-width="2" />
    <path d="M247.822 1575.68L969.484 -407.067" stroke="#BABABA" stroke-opacity="0.1" stroke-width="2" />
    <path d="M253.46 1577.74L975.122 -405.015" stroke="#BABABA" stroke-opacity="0.1" stroke-width="2" />
    <path d="M259.098 1579.79L980.761 -402.962" stroke="#BABABA" stroke-opacity="0.1" stroke-width="2" />
    <path d="M264.736 1581.84L986.399 -400.91" stroke="#BABABA" stroke-opacity="0.1" stroke-width="2" />
    <path d="M270.375 1583.89L992.037 -398.858" stroke="#BABABA" stroke-opacity="0.1" stroke-width="2" />
    <path d="M276.013 1585.95L997.675 -396.806" stroke="#BABABA" stroke-opacity="0.1" stroke-width="2" />
    <path d="M281.651 1588L1003.31 -394.754" stroke="#BABABA" stroke-opacity="0.1" stroke-width="2" />
    <path d="M287.289 1590.05L1008.95 -392.702" stroke="#BABABA" stroke-opacity="0.1" stroke-width="2" />
    <path d="M292.927 1592.1L1014.59 -390.65" stroke="#BABABA" stroke-opacity="0.1" stroke-width="2" />
    <path d="M298.565 1594.15L1020.23 -388.598" stroke="#BABABA" stroke-opacity="0.1" stroke-width="2" />
    <path d="M304.204 1596.21L1025.87 -386.545" stroke="#BABABA" stroke-opacity="0.1" stroke-width="2" />
    <path d="M309.842 1598.26L1031.5 -384.493" stroke="#BABABA" stroke-opacity="0.1" stroke-width="2" />
    <path d="M315.48 1600.31L1037.14 -382.441" stroke="#BABABA" stroke-opacity="0.1" stroke-width="2" />
    <path d="M321.118 1602.36L1042.78 -380.389" stroke="#BABABA" stroke-opacity="0.1" stroke-width="2" />
    <path d="M326.756 1604.41L1048.42 -378.337" stroke="#BABABA" stroke-opacity="0.1" stroke-width="2" />
    <path d="M332.394 1606.47L1054.06 -376.285" stroke="#BABABA" stroke-opacity="0.1" stroke-width="2" />
    <path d="M338.032 1608.52L1059.69 -374.233" stroke="#BABABA" stroke-opacity="0.1" stroke-width="2" />
    <path d="M343.67 1610.57L1065.33 -372.181" stroke="#BABABA" stroke-opacity="0.1" stroke-width="2" />
    <path d="M349.309 1612.62L1070.97 -370.128" stroke="#BABABA" stroke-opacity="0.1" stroke-width="2" />
    <path d="M354.947 1614.68L1076.61 -368.076" stroke="#BABABA" stroke-opacity="0.1" stroke-width="2" />
    <path d="M360.585 1616.73L1082.25 -366.024" stroke="#BABABA" stroke-opacity="0.1" stroke-width="2" />
    <path d="M366.223 1618.78L1087.89 -363.972" stroke="#BABABA" stroke-opacity="0.1" stroke-width="2" />
    <path d="M371.861 1620.83L1093.52 -361.92" stroke="#BABABA" stroke-opacity="0.1" stroke-width="2" />
    <path d="M377.5 1622.88L1099.16 -359.868" stroke="#BABABA" stroke-opacity="0.1" stroke-width="2" />
    <path d="M383.138 1624.94L1104.8 -357.816" stroke="#BABABA" stroke-opacity="0.1" stroke-width="2" />
    <path d="M388.776 1626.99L1110.44 -355.764" stroke="#BABABA" stroke-opacity="0.1" stroke-width="2" />
    <path d="M394.414 1629.04L1116.08 -353.712" stroke="#BABABA" stroke-opacity="0.1" stroke-width="2" />
    <path d="M400.052 1631.09L1121.71 -351.659" stroke="#BABABA" stroke-opacity="0.1" stroke-width="2" />
    <path d="M405.69 1633.14L1127.35 -349.607" stroke="#BABABA" stroke-opacity="0.1" stroke-width="2" />
    <path d="M411.329 1635.2L1132.99 -347.555" stroke="#BABABA" stroke-opacity="0.1" stroke-width="2" />
    <path d="M416.967 1637.25L1138.63 -345.503" stroke="#BABABA" stroke-opacity="0.1" stroke-width="2" />
    <path d="M422.605 1639.3L1144.27 -343.451" stroke="#BABABA" stroke-opacity="0.1" stroke-width="2" />
    <path d="M428.243 1641.35L1149.91 -341.399" stroke="#BABABA" stroke-opacity="0.1" stroke-width="2" />
    <path d="M433.881 1643.4L1155.54 -339.347" stroke="#BABABA" stroke-opacity="0.1" stroke-width="2" />
    <path d="M439.519 1645.46L1161.18 -337.295" stroke="#BABABA" stroke-opacity="0.1" stroke-width="2" />
    <path d="M445.157 1647.51L1166.82 -335.242" stroke="#BABABA" stroke-opacity="0.1" stroke-width="2" />
    <path d="M450.795 1649.56L1172.46 -333.19" stroke="#BABABA" stroke-opacity="0.1" stroke-width="2" />
    <path d="M456.434 1651.61L1178.1 -331.138" stroke="#BABABA" stroke-opacity="0.1" stroke-width="2" />
    <path d="M462.072 1653.67L1183.73 -329.086" stroke="#BABABA" stroke-opacity="0.1" stroke-width="2" />
    <path d="M467.71 1655.72L1189.37 -327.034" stroke="#BABABA" stroke-opacity="0.1" stroke-width="2" />
    <path d="M473.348 1657.77L1195.01 -324.982" stroke="#BABABA" stroke-opacity="0.1" stroke-width="2" />
    <path d="M478.986 1659.82L1200.65 -322.93" stroke="#BABABA" stroke-opacity="0.1" stroke-width="2" />
    <path d="M484.625 1661.87L1206.29 -320.878" stroke="#BABABA" stroke-opacity="0.1" stroke-width="2" />
    <path d="M490.263 1663.93L1211.93 -318.825" stroke="#BABABA" stroke-opacity="0.1" stroke-width="2" />
    <path d="M495.901 1665.98L1217.56 -316.773" stroke="#BABABA" stroke-opacity="0.1" stroke-width="2" />
    <path d="M501.539 1668.03L1223.2 -314.721" stroke="#BABABA" stroke-opacity="0.1" stroke-width="2" />
    <path d="M507.177 1670.08L1228.84 -312.669" stroke="#BABABA" stroke-opacity="0.1" stroke-width="2" />
    <path d="M512.815 1672.13L1234.48 -310.617" stroke="#BABABA" stroke-opacity="0.1" stroke-width="2" />
    <path d="M518.454 1674.19L1240.12 -308.565" stroke="#BABABA" stroke-opacity="0.1" stroke-width="2" />
    <path d="M524.091 1676.24L1245.75 -306.513" stroke="#BABABA" stroke-opacity="0.1" stroke-width="2" />
    <path d="M529.729 1678.29L1251.39 -304.461" stroke="#BABABA" stroke-opacity="0.1" stroke-width="2" />
    <path d="M535.368 1680.34L1257.03 -302.408" stroke="#BABABA" stroke-opacity="0.1" stroke-width="2" />
    <path d="M541.006 1682.4L1262.67 -300.356" stroke="#BABABA" stroke-opacity="0.1" stroke-width="2" />
    <path d="M546.644 1684.45L1268.31 -298.304" stroke="#BABABA" stroke-opacity="0.1" stroke-width="2" />
    <path d="M552.282 1686.5L1273.94 -296.252" stroke="#BABABA" stroke-opacity="0.1" stroke-width="2" />
    <path d="M557.92 1688.55L1279.58 -294.2" stroke="#BABABA" stroke-opacity="0.1" stroke-width="2" />
</svg>