<svg width="24" height="24" viewBox="0 0 24 24" fill="none" xmlns="http://www.w3.org/2000/svg">
    <path
        d="M12 23.077c6.117 0 11.077-4.96 11.077-11.077C23.077 5.882 18.117.923 12 .923 5.882.923.923 5.883.923 12S5.883 23.077 12 23.077Z"
        stroke="#01BE11" stroke-width=".923" />
    <path
        d="M10.708 19.385h-.82l.82-5.742h-2.87c-.477 0-.469-.262-.313-.542.156-.278.041-.065.058-.098 1.061-1.874 2.649-4.662 4.763-8.382h.82l-.82 5.742h2.87c.403 0 .46.27.386.418l-.057.123a2760.22 2760.22 0 0 0-4.837 8.483v-.002Z"
        fill="#01BE11" />
</svg>
