<svg width="25" height="24" viewBox="0 0 25 24" fill="none" xmlns="http://www.w3.org/2000/svg">
    <path
        d="M12.5 23.077c6.117 0 11.077-4.96 11.077-11.077C23.577 5.882 18.617.923 12.5.923 6.382.923 1.423 5.883 1.423 12S6.383 23.077 12.5 23.077Z"
        fill="#fff" stroke="currentColor" stroke-width=".923" />
    <path
        d="M11.208 19.385h-.82l.82-5.742h-2.87c-.477 0-.469-.262-.313-.542.156-.278.041-.065.058-.098 1.061-1.874 2.649-4.662 4.763-8.382h.82l-.82 5.742h2.87c.403 0 .46.27.386.418l-.057.123a2760.22 2760.22 0 0 0-4.837 8.483v-.002Z"
        fill="currentColor" />
</svg>
