<svg width="24" height="24" viewBox="0 0 24 24" fill="none" xmlns="http://www.w3.org/2000/svg">
<path d="M18.8936 3H12.766C11.6043 3 10.6596 3.94473 10.6596 5.10638V6.06383H8.74468V4.34043C8.74468 3.6014 8.14328 3 7.40426 3H4.34043C3.6014 3 3 3.6014 3 4.34043V6.6383V18.8936C3 20.0553 3.94473 21 5.10638 21H18.8936C20.0545 21 21 20.0553 21 18.8936V5.10638C21 3.94473 20.0545 3 18.8936 3ZM4.34043 4.14894H7.40426C7.50972 4.14894 7.59575 4.23496 7.59575 4.34043V6.06383H4.14894V4.34043C4.14894 4.23496 4.23496 4.14894 4.34043 4.14894ZM19.8511 18.8936C19.8511 19.4217 19.4217 19.8511 18.8936 19.8511H5.10638C4.57829 19.8511 4.14894 19.4217 4.14894 18.8936V7.21277H11.234C11.5512 7.21277 11.8085 6.95545 11.8085 6.6383V5.10638C11.8085 4.57829 12.2379 4.14894 12.766 4.14894H18.8936C19.4217 4.14894 19.8511 4.57829 19.8511 5.10638V18.8936Z" fill="currentColor"/>
<path d="M17.361 6.06445H14.2971C13.98 6.06445 13.7227 6.32177 13.7227 6.63892C13.7227 6.95608 13.98 7.21339 14.2971 7.21339H17.361C17.6781 7.21339 17.9354 6.95608 17.9354 6.63892C17.9354 6.32177 17.6781 6.06445 17.361 6.06445Z" fill="currentColor"/>
<path d="M11.5734 10.8497C11.1657 11.3045 9.12891 13.6458 9.12891 15.0632C9.12891 16.6468 10.4177 17.9356 12.0012 17.9356C13.5855 17.9356 14.8736 16.6468 14.8736 15.0632C14.8736 13.6458 12.8368 11.3045 12.4291 10.8497C12.2107 10.6074 11.7918 10.6074 11.5734 10.8497ZM12.0012 16.7867C11.0513 16.7867 10.2778 16.0132 10.2778 15.0632C10.2778 14.4506 11.1822 13.1162 12.0012 12.1169C12.8203 13.1162 13.7247 14.4506 13.7247 15.0632C13.7247 16.0132 12.9512 16.7867 12.0012 16.7867Z" fill="currentColor"/>
</svg>
