<svg width="25" height="24" viewBox="0 0 25 24" fill="none" xmlns="http://www.w3.org/2000/svg">
<g clip-path="url(#clip0_12628_190012)">
<path d="M22.3535 3.14648L20.3535 1.14647C20.1582 0.951141 19.8418 0.951141 19.6465 1.14647C19.4512 1.3418 19.4512 1.6582 19.6465 1.85348L21.293 3.49997L19.6465 5.14645C19.5528 5.2402 19.5 5.36714 19.5 5.49998V6.99998C19.5 8.10305 20.397 9 21.5 9V17.5C21.5 17.7758 21.2759 18 21 18C20.7242 18 20.5 17.7759 20.5 17.5V16.5C20.5 15.6728 19.8272 15 19 15H18.5V2.00002C18.5 0.896953 17.6031 0 16.5 0H6.50003C5.39702 0 4.50002 0.896953 4.50002 2.00002V20C3.397 20 2.5 20.897 2.5 22V23.5C2.5 23.7764 2.72364 24 3.00002 24H20C20.2764 24 20.5 23.7764 20.5 23.5V22C20.5 20.897 19.6031 20 18.5 20V16H19C19.2759 16 19.5001 16.2241 19.5001 16.5V17.5C19.5001 18.3272 20.1729 19 21.0001 19C21.8272 19 22.5001 18.3272 22.5001 17.5V3.50002C22.5 3.36717 22.4473 3.24023 22.3535 3.14648ZM5.50005 2.00002C5.50005 1.44877 5.94878 1.00003 6.50003 1.00003H16.5C17.0513 1.00003 17.5 1.44877 17.5 2.00002V20H5.5L5.50005 2.00002ZM19.5 22V23H3.50003V22C3.50003 21.4487 3.94877 21 4.50002 21H18.5C19.0513 21 19.5 21.4487 19.5 22ZM21.5 8.00002C20.9488 8.00002 20.5 7.55128 20.5 7.00003V5.70703L21.5 4.70705V8.00002Z" fill="#5C5C5C"/>
<path d="M16 2H7.00002C6.72364 2 6.5 2.22364 6.5 2.50002V8.5093C6.5 8.78567 6.72364 9.00931 7.00002 9.00931H16C16.2764 9.00931 16.5 8.78567 16.5 8.5093V2.49997C16.5 2.22364 16.2764 2 16 2ZM15.5 8.00928H7.49998V2.99998H15.5V8.00928Z" fill="#5C5C5C"/>
</g>
<defs>
<clipPath id="clip0_12628_190012">
<rect width="24" height="24" fill="white" transform="translate(0.5)"/>
</clipPath>
</defs>
</svg>
