<svg width="20" height="20" fill="none" xmlns="http://www.w3.org/2000/svg">
    <path fill-rule="evenodd" clip-rule="evenodd"
        d="M10 3a3 3 0 1 0 0 6 3 3 0 0 0 0-6ZM6 6a4 4 0 1 1 4.5 3.969v5.53a.5.5 0 0 1-1 0V9.97A4 4 0 0 1 6 6Zm2.493 8.574a.5.5 0 0 1-.411.575c-.712.118-1.28.295-1.655.493a1.319 1.319 0 0 0-.37.265.3.3 0 0 0-.057.09V16l.002.008c.004.012.01.023.016.033.04.058.088.109.145.15.165.13.435.27.813.395.751.25 1.82.414 3.024.414s2.273-.163 3.024-.414c.378-.126.648-.265.813-.395a.62.62 0 0 0 .146-.15.15.15 0 0 0 .015-.033L14 16v-.004a.3.3 0 0 0-.057-.09 1.32 1.32 0 0 0-.37-.264c-.376-.198-.943-.375-1.655-.493a.5.5 0 1 1 .164-.986c.77.127 1.452.328 1.957.594C14.5 15 15 15.4 15 16c0 .426-.26.752-.544.977-.29.228-.68.413-1.116.558-.878.293-2.059.465-3.34.465-1.281 0-2.462-.172-3.34-.465-.436-.145-.826-.33-1.116-.558C5.26 16.752 5 16.426 5 16c0-.6.5-1 .96-1.243.506-.266 1.188-.467 1.958-.594a.5.5 0 0 1 .575.41Z"
        fill="currentColor" />
</svg>