<svg width="24" height="24" viewBox="0 0 24 24" fill="none" xmlns="http://www.w3.org/2000/svg">
<path d="M15.8314 12.1911H14.874V6.63816C14.874 6.32102 14.6167 6.06371 14.2995 6.06371H14.108V3.57445C14.108 3.2573 13.8507 3 13.5336 3H10.4699C10.1527 3 9.89544 3.2573 9.89544 3.57445V6.06371H9.70396C9.38682 6.06371 9.12951 6.32102 9.12951 6.63816V12.1911H8.1721C7.85496 12.1911 7.59766 12.4484 7.59766 12.7656V17.3612C7.59766 17.6783 7.85496 17.9356 8.1721 17.9356H8.36358V18.893C8.36358 20.0546 9.30903 20.9993 10.4699 20.9993H13.5336C14.6945 20.9993 15.6399 20.0546 15.6399 18.893V17.9356H15.8314C16.1485 17.9356 16.4058 17.6783 16.4058 17.3612V12.7656C16.4058 12.4484 16.1485 12.1911 15.8314 12.1911ZM11.0443 4.14889H12.9592V6.06371H11.0443V4.14889ZM10.2784 7.21261H13.7251V12.1911H10.2784V7.21261ZM8.74655 13.34H15.2569V16.7867H8.74655V13.34ZM14.491 18.893C14.491 19.4211 14.0617 19.8504 13.5336 19.8504H10.4699C9.94182 19.8504 9.51248 19.4211 9.51248 18.893V17.9356H14.491V18.893Z" fill="currentColor"/>
<path d="M6.63831 6.06445C6.32117 6.06445 6.06386 6.32176 6.06386 6.6389V9.12817H3.57459C3.37563 9.12817 3.19013 9.23139 3.08542 9.40043C2.9807 9.57022 2.97172 9.78115 3.06148 9.95917L4.46469 12.7663L3.06148 15.5735C2.97172 15.7515 2.9807 15.9624 3.08542 16.1322C3.19013 16.3013 3.37563 16.4045 3.57459 16.4045H5.10645C5.42359 16.4045 5.6809 16.1472 5.6809 15.83C5.6809 15.5129 5.42359 15.2556 5.10645 15.2556H4.50358L5.61956 13.0229C5.70184 12.8613 5.70184 12.6713 5.61956 12.5098L4.50358 10.2771H6.63831C6.95545 10.2771 7.21275 10.0198 7.21275 9.70261V6.6389C7.21275 6.32176 6.95545 6.06445 6.63831 6.06445Z" fill="currentColor"/>
<path d="M19.5332 12.7663L20.9364 9.95917C21.0262 9.78115 21.0172 9.57022 20.9125 9.40043C20.8078 9.23139 20.6223 9.12817 20.4233 9.12817H17.934V6.6389C17.934 6.32176 17.6767 6.06445 17.3596 6.06445C17.0425 6.06445 16.7852 6.32176 16.7852 6.6389V9.70261C16.7852 10.0198 17.0425 10.2771 17.3596 10.2771H19.4943L18.3783 12.5098C18.2961 12.6713 18.2961 12.8613 18.3783 13.0229L19.4943 15.2556H18.8915C18.5743 15.2556 18.317 15.5129 18.317 15.83C18.317 16.1472 18.5743 16.4045 18.8915 16.4045H20.4233C20.6223 16.4045 20.8078 16.3013 20.9125 16.1322C21.0172 15.9624 21.0262 15.7515 20.9364 15.5735L19.5332 12.7663Z" fill="currentColor"/>
</svg>
