<svg width="24" height="24" viewBox="0 0 24 24" fill="none" xmlns="http://www.w3.org/2000/svg">
<path d="M12.9977 6.85352H9.42188V17.148H10.5938V13.8847H12.9977C14.903 13.8847 16.4531 12.3346 16.4531 10.4293V10.3089C16.4531 8.40363 14.903 6.85352 12.9977 6.85352ZM15.2812 10.4293C15.2812 11.6885 14.2568 12.7129 12.9977 12.7129H10.5938V8.02539H12.9977C14.2568 8.02539 15.2812 9.0498 15.2812 10.3089V10.4293Z" fill="currentColor"/>
<path d="M19.0711 4.92891C17.1823 3.04016 14.6711 2 12 2C9.32891 2 6.8177 3.04016 4.92891 4.92891C3.0402 6.8177 2 9.32895 2 12C2 14.6711 3.0402 17.1823 4.92895 19.0711C6.8177 20.9598 9.32891 22 12 22C14.6711 22 17.1823 20.9598 19.0711 19.0711C20.9598 17.1823 22 14.6711 22 12C22 9.32895 20.9598 6.8177 19.0711 4.92891ZM18.2425 18.2425C16.575 19.9098 14.358 20.8281 12 20.8281C9.64191 20.8281 7.425 19.9098 5.75758 18.2424C4.09016 16.575 3.17188 14.358 3.17188 12C3.17188 9.64195 4.09016 7.425 5.75758 5.75754C7.425 4.09016 9.64191 3.17188 12 3.17188C14.358 3.17188 16.575 4.09016 18.2425 5.75754C19.9098 7.425 20.8281 9.64195 20.8281 12C20.8281 14.358 19.9098 16.575 18.2425 18.2425Z" fill="currentColor"/>
</svg>
