<svg width="20" height="20" viewBox="0 0 20 20" fill="none" xmlns="http://www.w3.org/2000/svg">
<path d="M10 3.5V8.43104M10 8.43104L7.98277 6.18966M10 8.43104L12.0173 6.18966M3.5 11.569V13.8103C3.5 15.2958 4.7042 16.5 6.18966 16.5H13.8104C15.2958 16.5 16.5 15.2958 16.5 13.8103V11.569M3.5 11.569V7.08619C3.5 5.83291 4.35718 4.77984 5.51725 4.48126M3.5 11.569H7.98277V12.0172C7.98277 13.0075 8.78557 13.8103 9.77588 13.8103H10.2242C11.2145 13.8103 12.0173 13.0075 12.0173 12.0172V11.569H16.5M16.5 11.569V7.08619C16.5 5.83291 15.6429 4.77984 14.4828 4.48126" stroke="currentColor" stroke-linecap="round" stroke-linejoin="round"/>
</svg>
