<svg width="24" height="24" viewBox="0 0 24 24" fill="none" xmlns="http://www.w3.org/2000/svg">
<path d="M21.4141 11.0843H19.1218L18.9484 9.52624C18.8493 8.63653 18.0981 7.96557 17.2012 7.96557H12.4323C12.9505 5.5249 11.6805 3.05091 9.38297 2.04943C8.99656 1.88098 8.5625 2.16393 8.5625 2.58531V6.14063L7.27344 6.56946L5.98438 6.14063V2.58531C5.98438 2.16444 5.55082 1.88079 5.16391 2.04943C3.24191 2.88721 2 4.78096 2 6.874C2 8.83602 3.09184 10.6233 4.8125 11.5295V21.4152C4.8125 21.7382 5.07484 22 5.39844 22H9.14844C9.47203 22 9.73438 21.7382 9.73438 21.4152V19.427H15.1641V21.3762C15.1641 21.6992 15.4264 21.961 15.75 21.961H18.875C19.1986 21.961 19.4609 21.6992 19.4609 21.3762V19.0845L20.8518 17.6964C20.9617 17.5867 21.0234 17.438 21.0234 17.2829V14.7489H21.4141C21.7377 14.7489 22 14.4871 22 14.1642V11.6691C22 11.3462 21.7377 11.0843 21.4141 11.0843ZM20.8281 12.2539V13.5793C20.4898 13.5793 19.7303 13.5793 19.3995 13.5793L19.2519 12.2539H20.8281ZM17.2012 9.13511C17.5002 9.13511 17.7506 9.3588 17.7836 9.65539C18.1297 12.7646 17.6926 8.83769 18.2204 13.5793H9.73438V11.5295C10.7547 10.9921 11.5539 10.1448 12.0354 9.13511H17.2012ZM8.5625 20.8305H5.98438V11.1625C5.98438 10.93 5.84648 10.7197 5.63309 10.6266C4.13797 9.97452 3.17188 8.50153 3.17188 6.874C3.17188 5.5674 3.79398 4.36071 4.8125 3.59825V6.56213C4.8125 6.81385 4.97391 7.03727 5.21316 7.11688L7.08816 7.74063C7.2084 7.78067 7.33848 7.78067 7.45871 7.74063L9.33371 7.11688C9.57297 7.03727 9.73438 6.81385 9.73438 6.56213V3.59821C10.7529 4.36071 11.375 5.56736 11.375 6.87396C11.375 8.50153 10.4089 9.97452 8.91379 10.6266C8.70039 10.7196 8.5625 10.93 8.5625 11.1624V20.8305ZM16.3359 20.7915V19.427H18.2891V20.7915H16.3359ZM19.8516 17.0406L18.6323 18.2574H9.73438V14.7488H19.8516V17.0406Z" fill="currentColor"/>
<path d="M19.1113 16.5156H16.8658C16.4782 16.5156 16.1641 16.8298 16.1641 17.2173C16.1641 17.6049 16.4782 17.9191 16.8658 17.9191H19.1113C19.4988 17.9191 19.813 17.6049 19.813 17.2173C19.813 16.8298 19.4988 16.5156 19.1113 16.5156Z" fill="currentColor"/>
</svg>
