<svg width="28" height="28" viewBox="0 0 28 28" fill="none" xmlns="http://www.w3.org/2000/svg">
<rect width="28" height="28" rx="3" fill="none"/>
<path d="M13.9999 21.5L20.6666 17.3333C20.6666 16.4493 20.3154 15.6014 19.6903 14.9763C19.0651 14.3512 18.2173 14 17.3332 14H10.6666C9.78252 14 8.93468 14.3512 8.30956 14.9763C7.68444 15.6014 7.33325 16.4493 7.33325 17.3333L13.9999 21.5Z" fill="currentColor"/>
<path d="M14.0001 13.1667C15.841 13.1667 17.3334 11.6743 17.3334 9.83333C17.3334 7.99238 15.841 6.5 14.0001 6.5C12.1591 6.5 10.6667 7.99238 10.6667 9.83333C10.6667 11.6743 12.1591 13.1667 14.0001 13.1667Z" fill="currentColor"/>
</svg>
