<svg width="28" height="28" viewBox="0 0 28 28" fill="none" xmlns="http://www.w3.org/2000/svg">
    <rect width="28" height="28" rx="3" />
    <circle cx="14.333" cy="14.333" r="7.708" stroke="currentColor" stroke-width="1.25" />
    <path
        d="M13.066 12.632c0-.716.57-1.291 1.28-1.291.708 0 1.278.575 1.278 1.29a1.28 1.28 0 0 1-1.232 1.292h-.663v1.866h1.22v-.751a2.44 2.44 0 0 0 1.885-2.395c0-1.408-1.117-2.476-2.5-2.476-1.384 0-2.5 1.021-2.5 2.476h1.22l.012-.011Zm.488 5.868h1.559v-1.572h-1.559V18.5Z"
        fill="currentColor" />
</svg>
