<svg width="20" height="20" fill="none" xmlns="http://www.w3.org/2000/svg">
    <path
        d="M7.292 7.708V5.417m0 0c0 .805 1.959 1.458 4.375 1.458s4.375-.653 4.375-1.458m-8.75 0c0-.806 1.959-1.459 4.375-1.459s4.375.653 4.375 1.459m0 0V8.75c0 .36-.392.69-1.042.945m-2.292 1.555v3.333c0 .806-1.959 1.459-4.375 1.459s-4.375-.653-4.375-1.459V11.25m8.75 0c0 .805-1.959 1.458-4.375 1.458s-4.375-.653-4.375-1.458m8.75 0c0-.805-1.959-1.458-4.375-1.458s-4.375.653-4.375 1.458"
        stroke="#656565" stroke-linecap="round" stroke-linejoin="round" />
</svg>