<svg width="20" height="20" fill="none" xmlns="http://www.w3.org/2000/svg">
    <g clip-path="url(#a)" stroke="currentColor" stroke-linecap="round" stroke-linejoin="round">
        <path
            d="M17.429 14v2.286a1.143 1.143 0 0 1-1.143 1.143H14m0-14.858h2.286a1.143 1.143 0 0 1 1.143 1.143V6M2.571 6V3.714a1.143 1.143 0 0 1 1.143-1.143H6m0 14.858H3.714a1.143 1.143 0 0 1-1.143-1.143V14m12.572-4S12.857 13.429 10 13.429C7.143 13.429 4.857 10 4.857 10S7.143 6.571 10 6.571c2.857 0 5.143 3.429 5.143 3.429Z" />
        <path d="M10 10.571a.571.571 0 1 0 0-1.142.571.571 0 0 0 0 1.142Z" />
    </g>
    <defs>
        <clipPath id="a">
            <path fill="#fff" transform="translate(2 2)" d="M0 0h16v16H0z" />
        </clipPath>
    </defs>
</svg>