<svg width="30" height="30" viewBox="0 0 30 30" fill="none" xmlns="http://www.w3.org/2000/svg">
<path d="M8.83667 19.2992C8.83667 18.801 8.49096 18.5039 7.88099 18.5039C7.63192 18.5039 7.46323 18.5285 7.375 18.552V20.1505C7.47947 20.174 7.6079 20.1819 7.78492 20.1819C8.43509 20.1819 8.83667 19.8534 8.83667 19.2992Z" fill="#A6A6A6"/>
<path d="M12.6127 18.5234C12.3395 18.5234 12.163 18.547 12.0586 18.5715V22.1117C12.1631 22.1362 12.3318 22.1362 12.4843 22.1362C13.5924 22.144 14.3151 21.5341 14.3151 20.2416C14.3229 19.1177 13.6644 18.5234 12.6127 18.5234Z" fill="#A6A6A6"/>
<path d="M19.6297 0H7.58051C5.82024 0 4.38756 1.43367 4.38756 3.19295V14.9999H4.0757C3.36524 14.9999 2.78906 15.5756 2.78906 16.2866V24.0896C2.78906 24.8006 3.36518 25.3762 4.0757 25.3762H4.38756V26.807C4.38756 28.5682 5.82024 29.9999 7.58051 29.9999H24.0212C25.7803 29.9999 27.2132 28.5681 27.2132 26.807V7.55687L19.6297 0ZM6.16445 17.6948C6.54152 17.6311 7.07153 17.583 7.81827 17.583C8.5729 17.583 9.11075 17.7271 9.47214 18.0164C9.81735 18.2891 10.0503 18.7391 10.0503 19.2688C10.0503 19.7983 9.87379 20.2485 9.5526 20.5534C9.13483 20.9467 8.51703 21.1232 7.79431 21.1232C7.63346 21.1232 7.48929 21.1152 7.37655 21.0996V23.0345H6.16445V17.6948ZM24.0212 28.0445H7.58051C6.89893 28.0445 6.3439 27.4895 6.3439 26.807V25.3762H21.6699C22.3805 25.3762 22.9566 24.8006 22.9566 24.0896V16.2866C22.9566 15.5756 22.3805 14.9999 21.6699 14.9999H6.3439V3.19295C6.3439 2.51236 6.89899 1.95734 7.58051 1.95734L18.8982 1.94551V6.12892C18.8982 7.35085 19.8896 8.34324 21.1125 8.34324L25.2106 8.33148L25.2567 26.8069C25.2567 27.4895 24.7027 28.0445 24.0212 28.0445ZM10.8319 23.01V17.6948C11.2815 17.6232 11.8674 17.583 12.4858 17.583C13.5134 17.583 14.1798 17.7674 14.702 18.1606C15.2639 18.5784 15.6169 19.2443 15.6169 20.2003C15.6169 21.2359 15.2399 21.9508 14.7176 22.392C14.1479 22.8657 13.2805 23.0903 12.221 23.0903C11.5864 23.0903 11.1368 23.0501 10.8319 23.01ZM19.5945 19.8631V20.8584H17.6513V23.0345H16.423V17.6232H19.7308V18.6264H17.6513V19.8631H19.5945Z" fill="#A6A6A6"/>
</svg>
