<svg width="20" height="20" viewBox="0 0 20 20" fill="none" xmlns="http://www.w3.org/2000/svg">
    <path
        d="m10.303 5.856-.353.354-1.82 1.82-.189.189-.262-.053c-.445-.089-1.247-.23-2.088-.195-.85.036-1.654.249-2.192.786-.03.03-.035.057-.035.071 0 .015.005.04.035.071l-.353.354.353-.354 3.458 3.458.353.353-.353.354-3.821 3.82m7.267-11.028L3.036 16.885m7.267-11.029-.353-.353-.425-.425a.148.148 0 0 1-.038-.075c0-.007 0-.012.002-.017a.143.143 0 0 1 .036-.05l1.941-1.94c.03-.031.056-.036.071-.036.015 0 .04.005.071.035l5.337 5.338c.026.025.047.061.053.131a.705.705 0 0 1-.022.223l-1.85 1.85c-.03.03-.056.035-.071.035-.015 0-.04-.004-.071-.035l-.425-.425-.353-.353-.354.353-1.82 1.82-.188.19.052.262c.089.445.23 1.246.195 2.087-.035.85-.249 1.654-.786 2.192l-.035.035-.002.003a.119.119 0 0 1-.035-.006.302.302 0 0 1-.089-.05l-3.438-3.44-.354-.353-.353.354-3.816 3.815m7.12-11.165-7.12 11.165m-.147-.136c-.031.03-.036.056-.036.07 0 .016.005.041.036.072 0 0 .003.003.014.007s.03.007.055.006a.21.21 0 0 0 .078-.02m-.147-.135.147.136"
        stroke="#A6A6A6" />
</svg>
