<svg width="20" height="20" viewBox="0 0 20 20" fill="none" xmlns="http://www.w3.org/2000/svg">
    <path
        d="M8.12536 8.3335C8.12536 8.3335 8.33369 6.4585 10.0004 6.4585C11.6671 6.4585 11.8754 7.50017 11.8754 8.3335C11.8754 8.95962 11.5226 9.58575 10.8169 9.85841C10.3876 10.0243 10.0004 10.3733 10.0004 10.8335V11.0419M16.0417 10.0002C16.0417 13.3369 13.3368 16.0419 10 16.0419C6.66331 16.0419 3.95837 13.3369 3.95837 10.0002C3.95837 6.66345 6.66331 3.9585 10 3.9585C13.3368 3.9585 16.0417 6.66345 16.0417 10.0002ZM10.4167 13.3361C10.4167 13.5663 10.2302 13.7528 10 13.7528C9.76992 13.7528 9.58337 13.5663 9.58337 13.3361C9.58337 13.106 9.76992 12.9195 10 12.9195C10.2302 12.9195 10.4167 13.106 10.4167 13.3361Z"
        stroke="currentColor" stroke-linecap="round" stroke-linejoin="round" />
</svg>