<svg width="14" height="14" viewBox="0 0 14 14" fill="none" xmlns="http://www.w3.org/2000/svg">
    <g clip-path="url(#clip0_14103_51013)">
        <path fill-rule="evenodd" clip-rule="evenodd"
            d="M1 0.5C1 0.223858 1.22386 0 1.5 0H9.18C9.32407 0 9.46115 0.0621482 9.55609 0.170517L13.8761 5.10155C13.956 5.19273 14 5.30982 14 5.43103V13.5C14 13.688 13.8945 13.8601 13.727 13.9455C13.5595 14.0309 13.3583 14.015 13.2062 13.9045L11.6715 12.7898C11.4912 12.6588 11.2295 12.667 11.0602 12.8054L9.73638 13.8872C9.55229 14.0376 9.28771 14.0376 9.10362 13.8872L7.81578 12.8348C7.63793 12.6895 7.36207 12.6895 7.18422 12.8348L5.89638 13.8872C5.71229 14.0376 5.44771 14.0376 5.26362 13.8872L3.93982 12.8054C3.77049 12.667 3.50883 12.6588 3.32851 12.7898L1.79385 13.9045C1.64173 14.015 1.44049 14.0309 1.27298 13.9455C1.10547 13.8601 1 13.688 1 13.5V0.5ZM2 1V12.5188L2.74081 11.9807C3.28662 11.5843 4.04962 11.6037 4.57259 12.0311L5.58 12.8543L6.55145 12.0604C7.09749 11.6142 7.9025 11.6142 8.44855 12.0604L9.42 12.8543L10.4274 12.0311C10.9504 11.6037 11.7134 11.5843 12.2592 11.9807L13 12.5188V5.93103H11.1C9.79622 5.93103 8.68 4.93603 8.68 3.63793V1H2ZM9.68 1.82949L12.3972 4.93103H11.1C10.283 4.93103 9.68 4.32044 9.68 3.63793V1.82949Z"
            fill="currentColor" />
    </g>
    <defs>
        <clipPath id="clip0_14103_51013">
            <rect width="14" height="14" fill="white" />
        </clipPath>
    </defs>
</svg>
