<svg width="25" height="24" viewBox="0 0 25 24" fill="none" xmlns="http://www.w3.org/2000/svg">
<path d="M18.2931 19.9997H6.70686C5.48805 19.9997 4.5 19.0117 4.5 17.7929V6.20686C4.5 4.98805 5.48804 4 6.70686 4H18.2931C19.512 4 20.5 4.98805 20.5 6.20686V17.7929C20.5 19.0117 19.512 19.9997 18.2931 19.9997Z" stroke="#5C5C5C" stroke-width="1.10343" stroke-linecap="round" stroke-linejoin="round"/>
<path d="M11.3967 7.86182H12.5001C13.8713 7.86182 14.9828 8.97337 14.9828 10.3445C14.9828 11.7157 13.8713 12.8273 12.5001 12.8273H9.46569C8.55158 12.8273 7.81055 13.5683 7.81055 14.4824C7.81055 15.3965 8.55158 16.1375 9.46569 16.1375H13.8794C15.0982 16.1375 16.0863 17.1256 16.0863 18.3444V19.9996" stroke="#5C5C5C" stroke-width="1.10343" stroke-linecap="round" stroke-linejoin="round"/>
<path d="M7.81055 7.86182H8.36226" stroke="#5C5C5C" stroke-width="1.10343" stroke-linecap="round" stroke-linejoin="round"/>
</svg>
