<svg width="20" height="20" viewBox="0 0 20 20" fill="none" xmlns="http://www.w3.org/2000/svg">
<path d="M6.04114 16.0412H5.62457C4.70432 16.0412 3.95831 15.2952 3.95831 14.3749V13.9583" stroke="#656565" stroke-width="0.999756" stroke-linecap="round" stroke-linejoin="round"/>
<path d="M4.79169 10.625H6.87451C7.79476 10.625 8.54077 11.371 8.54077 12.2913V13.541" stroke="#656565" stroke-width="0.999756" stroke-linecap="round" stroke-linejoin="round"/>
<path d="M15.2076 12.2917H13.1248C12.6647 12.2917 12.2917 12.6646 12.2917 13.1248V15.2076C12.2917 15.6677 12.6647 16.0407 13.1248 16.0407H15.2076C15.6678 16.0407 16.0408 15.6677 16.0408 15.2076V13.1248C16.0408 12.6646 15.6678 12.2917 15.2076 12.2917Z" stroke="#656565" stroke-width="0.999756" stroke-linecap="round" stroke-linejoin="round"/>
<path d="M10.625 9.375H16.0417" stroke="#656565" stroke-width="0.999756" stroke-linecap="round" stroke-linejoin="round"/>
<path d="M10.625 6.45834H12.7078" stroke="#656565" stroke-width="0.999756" stroke-linecap="round" stroke-linejoin="round"/>
<path d="M13.125 3.95834H14.3747C15.295 3.95834 16.041 4.70435 16.041 5.6246V6.8743" stroke="#656565" stroke-width="0.999756" stroke-linecap="round" stroke-linejoin="round"/>
<path d="M6.87427 3.95834H4.79144C4.33132 3.95834 3.95831 4.33135 3.95831 4.79147V6.8743C3.95831 7.33442 4.33132 7.70743 4.79144 7.70743H6.87427C7.33439 7.70743 7.7074 7.33442 7.7074 6.8743V4.79147C7.7074 4.33135 7.33439 3.95834 6.87427 3.95834Z" stroke="#656565" stroke-width="0.999756" stroke-linecap="round" stroke-linejoin="round"/>
</svg>
