<svg width="20" height="20" fill="none" xmlns="http://www.w3.org/2000/svg">
    <path
        d="M6.041 16.041h-.416c-.92 0-1.667-.746-1.667-1.666v-.417m.834-3.333h2.083c.92 0 1.666.746 1.666 1.666v1.25m6.667-1.249h-2.083a.833.833 0 0 0-.833.833v2.083c0 .46.373.833.833.833h2.083c.46 0 .833-.373.833-.833v-2.083a.833.833 0 0 0-.833-.833Zm-4.583-2.917h5.417m-5.417-2.917h2.083m.417-2.5h1.25c.92 0 1.666.746 1.666 1.667v1.25M6.874 3.958H4.791a.833.833 0 0 0-.833.833v2.083c0 .46.373.833.833.833h2.083c.46 0 .833-.373.833-.833V4.791a.833.833 0 0 0-.833-.833Z"
        stroke="#656565" stroke-linecap="round" stroke-linejoin="round" />
</svg>