<svg width="20" height="20" fill="none" xmlns="http://www.w3.org/2000/svg">
    <path
        d="m4.684 12.469.917.144a1.336 1.336 0 0 1 1.111 1.425l-.067.947a.676.676 0 0 0 .37.655l.679.335a.65.65 0 0 0 .733-.112l.682-.645a1.291 1.291 0 0 1 1.781 0l.682.645a.647.647 0 0 0 .733.112l.68-.335a.673.673 0 0 0 .37-.654l-.069-.948a1.336 1.336 0 0 1 1.111-1.425l.918-.144a.665.665 0 0 0 .542-.516l.168-.75a.68.68 0 0 0-.27-.706l-.766-.537a1.362 1.362 0 0 1-.396-1.776l.463-.823a.687.687 0 0 0-.057-.756l-.47-.602a.65.65 0 0 0-.707-.224l-.887.278a1.306 1.306 0 0 1-1.607-.791l-.34-.881a.659.659 0 0 0-.614-.427l-.752.002a.66.66 0 0 0-.612.43l-.331.871a1.305 1.305 0 0 1-1.61.796l-.923-.29a.65.65 0 0 0-.71.226l-.466.603a.686.686 0 0 0-.052.758l.473.825a1.362 1.362 0 0 1-.39 1.787l-.757.53a.68.68 0 0 0-.27.706l.168.75c.06.27.275.475.542.517Z"
        stroke="currentColor" stroke-linecap="round" stroke-linejoin="round" />
    <path d="M11.326 8.674a1.875 1.875 0 1 1-2.653 2.652 1.875 1.875 0 0 1 2.653-2.652Z" stroke="currentColor"
        stroke-linecap="round" stroke-linejoin="round" />
</svg>