<svg width="20" height="20" viewBox="0 0 20 20" fill="none" xmlns="http://www.w3.org/2000/svg">
    <g clip-path="url(#a)" stroke="#656565" stroke-linecap="round" stroke-linejoin="round">
        <path
            d="M16.042 5.833a1.875 1.875 0 1 1-3.75 0 1.875 1.875 0 0 1 3.75 0ZM7.708 10a1.875 1.875 0 1 1-3.75 0 1.875 1.875 0 0 1 3.75 0Zm8.334 4.167a1.875 1.875 0 1 1-3.75 0 1.875 1.875 0 0 1 3.75 0Zm-3.959-.834L7.5 11.25m4.583-4.167L7.5 9.167" />
    </g>
    <defs>
        <clipPath id="a">
            <path fill="#fff" d="M0 0h20v20H0z" />
        </clipPath>
    </defs>
</svg>
