<svg width="20" height="20" viewBox="0 0 20 20" fill="none" xmlns="http://www.w3.org/2000/svg">
<g clip-path="url(#clip0_14822_116592)">
<path d="M16.0417 5.83334C16.0417 6.86888 15.2022 7.70834 14.1667 7.70834C13.1312 7.70834 12.2917 6.86888 12.2917 5.83334C12.2917 4.79781 13.1312 3.95834 14.1667 3.95834C15.2022 3.95834 16.0417 4.79781 16.0417 5.83334Z" stroke="#656565" stroke-linecap="round" stroke-linejoin="round"/>
<path d="M7.70831 10C7.70831 11.0355 6.86885 11.875 5.83331 11.875C4.79778 11.875 3.95831 11.0355 3.95831 10C3.95831 8.96447 4.79778 8.125 5.83331 8.125C6.86885 8.125 7.70831 8.96447 7.70831 10Z" stroke="#656565" stroke-linecap="round" stroke-linejoin="round"/>
<path d="M16.0417 14.1667C16.0417 15.2022 15.2022 16.0417 14.1667 16.0417C13.1312 16.0417 12.2917 15.2022 12.2917 14.1667C12.2917 13.1311 13.1312 12.2917 14.1667 12.2917C15.2022 12.2917 16.0417 13.1311 16.0417 14.1667Z" stroke="#656565" stroke-linecap="round" stroke-linejoin="round"/>
<path d="M12.0833 13.3333L7.5 11.25" stroke="#656565" stroke-linecap="round" stroke-linejoin="round"/>
<path d="M12.0833 7.08334L7.5 9.16668" stroke="#656565" stroke-linecap="round" stroke-linejoin="round"/>
</g>
<defs>
<clipPath id="clip0_14822_116592">
<rect width="20" height="20" fill="white"/>
</clipPath>
</defs>
</svg>
