<svg width="24" height="24" viewBox="0 0 24 24" fill="none" xmlns="http://www.w3.org/2000/svg">
<path d="M15.719 11.0699L13.0358 12.1881C12.7664 11.93 12.403 11.77 12.0003 11.77C11.1715 11.77 10.5 12.4414 10.5 13.2703C10.5 14.0991 11.1715 14.7705 12.0003 14.7705C12.8198 14.7705 13.4839 14.1124 13.4979 13.2963L16.1804 12.1787C16.4864 12.0514 16.6311 11.6993 16.5031 11.3939C16.3758 11.0879 16.0244 10.9418 15.719 11.0699Z" fill="currentColor"/>
<path d="M11.9988 4C6.8879 4 2.73047 8.1581 2.73047 13.2684C2.73047 15.7428 3.69531 18.0693 5.44697 19.8209C5.67768 20.0516 6.04775 20.0523 6.28246 19.8296C6.28646 19.8263 6.29046 19.8263 6.29446 19.8229L7.26664 18.8501C7.50068 18.6154 7.50068 18.2353 7.26664 18.0012C7.0326 17.7672 6.65253 17.7665 6.41782 18.0012L5.89172 18.5273C4.75751 17.2151 4.08672 15.5968 3.96003 13.8692H4.70617C5.03756 13.8692 5.30628 13.6004 5.30628 13.269C5.30628 12.9376 5.03756 12.6689 4.70617 12.6689H3.9607C4.09205 10.8959 4.79618 9.28297 5.89172 8.01207L6.41715 8.5375C6.5345 8.65486 6.68787 8.71354 6.84189 8.71354C6.99592 8.71354 7.14862 8.65486 7.26597 8.5375C7.50068 8.30279 7.50068 7.92272 7.26597 7.68868L6.74121 7.16192C8.01211 6.06571 9.62574 5.36225 11.3987 5.23089V5.9757C11.3987 6.30709 11.6675 6.57581 11.9988 6.57581C12.3302 6.57581 12.599 6.30709 12.599 5.9757V5.23089C14.372 5.36225 15.9856 6.06571 17.2565 7.16192L16.7311 7.68735C16.497 7.92206 16.497 8.30213 16.7311 8.53617C16.8484 8.65352 17.0018 8.7122 17.1551 8.7122C17.3085 8.7122 17.4625 8.65352 17.5799 8.53617L18.1053 8.01074C19.2015 9.28164 19.905 10.8946 20.0363 12.6676H19.2915C18.9601 12.6676 18.6914 12.9363 18.6914 13.2677C18.6914 13.5991 18.9601 13.8678 19.2915 13.8678H20.0377C19.911 15.5955 19.2402 17.2138 18.106 18.526L17.5799 17.9999C17.3452 17.7652 16.9658 17.7652 16.7311 17.9999C16.4963 18.2346 16.4963 18.6147 16.7311 18.8487L17.7032 19.8216C17.7039 19.8223 17.7052 19.8216 17.7059 19.8223C17.8226 19.9369 17.9739 19.9949 18.126 19.9949C18.2793 19.9949 18.4327 19.9363 18.5501 19.8189C20.3017 18.0673 21.2666 15.7408 21.2666 13.2664C21.2672 8.1581 17.1098 4 11.9988 4Z" fill="currentColor"/>
</svg>
