<svg width="25" height="24" viewBox="0 0 25 24" fill="none" xmlns="http://www.w3.org/2000/svg">
<path d="M12.5 19.7595C17.2992 19.7595 21.5 17.1588 21.5 11.3794C21.5 5.59999 17.2992 2.99927 12.5 2.99927C7.70084 2.99927 3.5 5.59999 3.5 11.3794C3.5 13.5737 4.10558 15.3098 5.11955 16.6192C5.41617 17.0023 5.53401 17.5114 5.32868 17.9501C5.20361 18.2174 5.072 18.4725 4.93742 18.7144C4.37355 19.7274 5.15043 21.2034 6.28722 20.9758C7.54851 20.7232 8.95899 20.3454 10.1357 19.789C10.3813 19.6729 10.6546 19.6277 10.9241 19.6619C11.4386 19.7272 11.9656 19.7595 12.5 19.7595Z" stroke="#5C5C5C" stroke-linecap="round" stroke-linejoin="round"/>
<path d="M12.5 7.99927V10.9993" stroke="#5C5C5C" stroke-linecap="round" stroke-linejoin="round"/>
<path d="M12.5 14V15" stroke="#5C5C5C" stroke-linecap="round" stroke-linejoin="round"/>
</svg>
