<svg width="20" height="20" viewBox="0 0 20 20" fill="none" xmlns="http://www.w3.org/2000/svg">
<path d="M17.299 8.01931L11.9617 2.68196C11.7191 2.43935 11.3552 2.43935 11.1125 2.68196L9.17169 4.62281C8.86843 4.92607 8.98973 5.28998 9.17169 5.47193L9.59625 5.8965L7.7767 7.71605C6.86692 7.53409 4.3802 7.10953 3.04587 8.44387C2.80326 8.68647 2.80326 9.05038 3.04587 9.29299L6.50301 12.7501L2.68196 16.5712C2.43935 16.8138 2.43935 17.1777 2.68196 17.4203C2.92456 17.6629 3.34912 17.6023 3.53108 17.4203L7.35214 13.5993L10.8093 17.0564C11.1732 17.3597 11.5371 17.2384 11.6584 17.0564C12.9927 15.7221 12.5682 13.2354 12.3862 12.3256L14.2058 10.506L14.6303 10.9306C14.8729 11.1732 15.2369 11.1732 15.4795 10.9306L17.4203 8.98973C17.5416 8.62582 17.5416 8.26191 17.299 8.01931Z" fill="#656565"/>
</svg>
