<svg width="20" height="20" fill="none" xmlns="http://www.w3.org/2000/svg">
    <path
        d="M17.518 10v-.683a.683.683 0 1 0-1.366 0V10h-.684V5.216a2.05 2.05 0 0 0-2.05-2.051h-9.57a2.05 2.05 0 0 0-2.05 2.05v8.886c0 .377.306.683.683.683h.684a2.05 2.05 0 1 0 4.101 0h2.05a2.05 2.05 0 1 0 4.101 0h1.367a.683.683 0 0 0 .684-.683v-2.734h2.05a.683.683 0 1 0 0-1.367ZM3.165 5.216c0-.378.306-.684.684-.684h9.569c.377 0 .683.306.683.684V10H3.165V5.216Zm2.05 10.252a.683.683 0 0 1-.616-.977l.03-.046a.688.688 0 0 1 .41-.32h.002a.666.666 0 0 1 .095-.019l.02-.002a.661.661 0 0 1 .234.02l.003.001c.17.047.317.16.41.32a.453.453 0 0 0 .03.046.68.68 0 0 1-.617.977Zm6.152 0a.683.683 0 0 1-.617-.977.7.7 0 0 0 .03-.046.688.688 0 0 1 .41-.32h.002a.666.666 0 0 1 .095-.019l.02-.002a.66.66 0 0 1 .12 0l.02.002a.608.608 0 0 1 .095.018l.002.001c.17.047.317.16.41.32a.7.7 0 0 0 .03.046.683.683 0 0 1-.617.977Zm2.734-2.05h-1.206a2.045 2.045 0 0 0-1.403-.68l-.016-.001a2.084 2.084 0 0 0-.218 0l-.016.001a2.099 2.099 0 0 0-.094.008h-.006a2.045 2.045 0 0 0-1.303.671H6.744a2.045 2.045 0 0 0-1.303-.67l-.006-.001a2.1 2.1 0 0 0-.095-.008l-.015-.001a2.081 2.081 0 0 0-.219 0l-.015.001a2.1 2.1 0 0 0-.095.008h-.005a2.045 2.045 0 0 0-1.304.671h-.522v-2.05h10.936v2.05Z"
        fill="#656565" />
</svg>