<svg width="24" height="25" fill="none" xmlns="http://www.w3.org/2000/svg">
    <path
        d="M5.782 20.133h7.437c.564 0 1.008-.468.896-1.022-.31-1.527-1.325-4.228-4.615-4.228s-4.304 2.701-4.614 4.228c-.113.553.331 1.022.896 1.022Zm9.968-5.25c2.079 0 2.93 2.148 3.274 3.696.185.836-.49 1.554-1.347 1.554h-.927m-4.5-11.75a2.75 2.75 0 1 1-5.5 0 2.75 2.75 0 0 1 5.5 0Zm2.5 2.75c1.519 0 2.5-1.231 2.5-2.75s-.981-2.75-2.5-2.75"
        stroke="currentColor" stroke-linecap="round" stroke-linejoin="round" />
</svg>