<svg width="20" height="20" fill="none" xmlns="http://www.w3.org/2000/svg">
    <circle cx="10" cy="10" r="9.5" stroke="#FFB114" />
    <circle cx="10" cy="10" r="9" fill="#F4F4F4" />
    <path
        d="M14.303 7.903a.124.124 0 0 0-.21-.067l-.55.55a.648.648 0 0 1-.916 0l-.68-.68a.648.648 0 0 1 0-.916l.55-.55a.124.124 0 0 0-.066-.21c-.63-.106-1.28.068-1.742.531-.524.524-.679 1.285-.475 1.987l-3.888 3.888a1.112 1.112 0 0 0 1.572 1.572l3.888-3.888c.701.203 1.463.049 1.986-.475.463-.463.638-1.113.531-1.742ZM7.488 13.42a.408.408 0 1 1-.576-.576.408.408 0 0 1 .576.576Z"
        fill="#FFB114" />
</svg>