<svg width="414" height="48" viewBox="0 0 414 48" fill="none" xmlns="http://www.w3.org/2000/svg">
    <mask id="mask0_8792_32480" style="mask-type:alpha" maskUnits="userSpaceOnUse" x="0" y="0" width="414" height="48">
        <rect width="414" height="48" fill="url(#paint0_linear_8792_32480)"/>
    </mask>
    <g mask="url(#mask0_8792_32480)">
        <path d="M6.08594 -213L-74.9068 41.944" stroke="#656565"/>
        <path d="M10.9629 -211.898L-70.0298 43.0462" stroke="#656565"/>
        <path d="M15.8398 -210.796L-65.1529 44.1484" stroke="#656565"/>
        <path d="M20.7168 -209.693L-60.2759 45.2505" stroke="#656565"/>
        <path d="M25.5938 -208.591L-55.399 46.3527" stroke="#656565"/>
        <path d="M30.4707 -207.489L-50.522 47.4549" stroke="#656565"/>
        <path d="M35.3477 -206.387L-45.6451 48.5571" stroke="#656565"/>
        <path d="M40.2246 -205.285L-40.7681 49.6593" stroke="#656565"/>
        <path d="M45.1016 -204.182L-35.8911 50.7615" stroke="#656565"/>
        <path d="M49.9785 -203.08L-31.0142 51.8637" stroke="#656565"/>
        <path d="M54.8555 -201.978L-26.1372 52.9659" stroke="#656565"/>
        <path d="M59.7324 -200.876L-21.2603 54.0681" stroke="#656565"/>
        <path d="M64.6094 -199.774L-16.3833 55.1703" stroke="#656565"/>
        <path d="M69.4863 -198.672L-11.5064 56.2725" stroke="#656565"/>
        <path d="M74.3633 -197.569L-6.62943 57.3747" stroke="#656565"/>
        <path d="M79.2402 -196.467L-1.75248 58.4768" stroke="#656565"/>
        <path d="M84.1172 -195.365L3.12448 59.579" stroke="#656565"/>
        <path d="M88.9941 -194.263L8.00143 60.6812" stroke="#656565"/>
        <path d="M93.8711 -193.161L12.8784 61.7834" stroke="#656565"/>
        <path d="M98.748 -192.058L17.7553 62.8856" stroke="#656565"/>
        <path d="M103.627 -190.956L22.6342 63.9878" stroke="#656565"/>
        <path d="M108.504 -189.854L27.5112 65.09" stroke="#656565"/>
        <path d="M113.381 -188.752L32.3881 66.1922" stroke="#656565"/>
        <path d="M118.258 -187.65L37.2651 67.2944" stroke="#656565"/>
        <path d="M123.135 -186.547L42.1421 68.3966" stroke="#656565"/>
        <path d="M128.012 -185.445L47.019 69.4988" stroke="#656565"/>
        <path d="M132.889 -184.343L51.896 70.6009" stroke="#656565"/>
        <path d="M137.766 -183.241L56.7729 71.7031" stroke="#656565"/>
        <path d="M142.643 -182.139L61.6499 72.8053" stroke="#656565"/>
        <path d="M147.52 -181.036L66.5268 73.9075" stroke="#656565"/>
        <path d="M152.396 -179.934L71.4038 75.0097" stroke="#656565"/>
        <path d="M157.273 -178.832L76.2807 76.1119" stroke="#656565"/>
        <path d="M162.15 -177.73L81.1577 77.2141" stroke="#656565"/>
        <path d="M167.027 -176.628L86.0346 78.3163" stroke="#656565"/>
        <path d="M171.904 -175.525L90.9116 79.4185" stroke="#656565"/>
        <path d="M176.781 -174.423L95.7885 80.5207" stroke="#656565"/>
        <path d="M181.658 -173.321L100.665 81.6229" stroke="#656565"/>
        <path d="M186.535 -172.219L105.542 82.725" stroke="#656565"/>
        <path d="M191.412 -171.117L110.419 83.8272" stroke="#656565"/>
        <path d="M196.289 -170.015L115.296 84.9294" stroke="#656565"/>
        <path d="M201.166 -168.912L120.173 86.0316" stroke="#656565"/>
        <path d="M206.043 -167.81L125.05 87.1338" stroke="#656565"/>
        <path d="M210.92 -166.708L129.927 88.236" stroke="#656565"/>
        <path d="M215.797 -165.606L134.804 89.3382" stroke="#656565"/>
        <path d="M220.674 -164.504L139.681 90.4404" stroke="#656565"/>
        <path d="M225.551 -163.401L144.558 91.5426" stroke="#656565"/>
        <path d="M230.428 -162.299L149.435 92.6448" stroke="#656565"/>
        <path d="M235.305 -161.197L154.312 93.747" stroke="#656565"/>
        <path d="M240.182 -160.095L159.189 94.8492" stroke="#656565"/>
        <path d="M245.059 -158.993L164.066 95.9513" stroke="#656565"/>
        <path d="M249.936 -157.89L168.943 97.0535" stroke="#656565"/>
        <path d="M254.812 -156.788L173.82 98.1557" stroke="#656565"/>
        <path d="M259.689 -155.686L178.697 99.2579" stroke="#656565"/>
        <path d="M264.566 -154.584L183.574 100.36" stroke="#656565"/>
        <path d="M269.443 -153.482L188.451 101.462" stroke="#656565"/>
        <path d="M274.32 -152.379L193.328 102.564" stroke="#656565"/>
        <path d="M279.197 -151.277L198.205 103.667" stroke="#656565"/>
        <path d="M284.074 -150.175L203.082 104.769" stroke="#656565"/>
        <path d="M288.953 -149.073L207.96 105.871" stroke="#656565"/>
        <path d="M293.83 -147.971L212.837 106.973" stroke="#656565"/>
        <path d="M298.707 -146.869L217.714 108.075" stroke="#656565"/>
        <path d="M303.584 -145.766L222.591 109.178" stroke="#656565"/>
        <path d="M308.461 -144.664L227.468 110.28" stroke="#656565"/>
        <path d="M313.338 -143.562L232.345 111.382" stroke="#656565"/>
        <path d="M318.215 -142.46L237.222 112.484" stroke="#656565"/>
        <path d="M323.092 -141.358L242.099 113.586" stroke="#656565"/>
        <path d="M327.969 -140.255L246.976 114.689" stroke="#656565"/>
        <path d="M332.846 -139.153L251.853 115.791" stroke="#656565"/>
        <path d="M337.723 -138.051L256.73 116.893" stroke="#656565"/>
        <path d="M342.6 -136.949L261.607 117.995" stroke="#656565"/>
        <path d="M347.477 -135.847L266.484 119.097" stroke="#656565"/>
        <path d="M352.354 -134.744L271.361 120.2" stroke="#656565"/>
        <path d="M357.23 -133.642L276.238 121.302" stroke="#656565"/>
        <path d="M362.107 -132.54L281.115 122.404" stroke="#656565"/>
        <path d="M366.984 -131.438L285.992 123.506" stroke="#656565"/>
        <path d="M371.861 -130.336L290.869 124.608" stroke="#656565"/>
        <path d="M376.738 -129.233L295.746 125.71" stroke="#656565"/>
        <path d="M381.615 -128.131L300.623 126.813" stroke="#656565"/>
        <path d="M386.492 -127.029L305.499 127.915" stroke="#656565"/>
        <path d="M391.369 -125.927L310.376 129.017" stroke="#656565"/>
        <path d="M396.246 -124.825L315.253 130.119" stroke="#656565"/>
        <path d="M401.123 -123.723L320.13 131.221" stroke="#656565"/>
        <path d="M406 -122.62L325.007 132.324" stroke="#656565"/>
        <path d="M410.877 -121.518L329.884 133.426" stroke="#656565"/>
        <path d="M415.754 -120.416L334.761 134.528" stroke="#656565"/>
        <path d="M420.631 -119.314L339.638 135.63" stroke="#656565"/>
        <path d="M425.508 -118.212L344.515 136.732" stroke="#656565"/>
        <path d="M430.385 -117.109L349.392 137.835" stroke="#656565"/>
        <path d="M435.262 -116.007L354.269 138.937" stroke="#656565"/>
        <path d="M440.139 -114.905L359.146 140.039" stroke="#656565"/>
        <path d="M445.016 -113.803L364.023 141.141" stroke="#656565"/>
        <path d="M449.893 -112.701L368.9 142.243" stroke="#656565"/>
        <path d="M454.77 -111.598L373.777 143.346" stroke="#656565"/>
        <path d="M459.646 -110.496L378.654 144.448" stroke="#656565"/>
        <path d="M464.523 -109.394L383.531 145.55" stroke="#656565"/>
        <path d="M469.4 -108.292L388.408 146.652" stroke="#656565"/>
        <path d="M474.279 -107.19L393.287 147.754" stroke="#656565"/>
        <path d="M479.156 -106.087L398.164 148.857" stroke="#656565"/>
    </g>
    <defs>
        <linearGradient id="paint0_linear_8792_32480" x1="207" y1="0" x2="207" y2="48" gradientUnits="userSpaceOnUse">
            <stop stop-color="#D9D9D9" stop-opacity="0"/>
            <stop offset="1" stop-color="#D9D9D9" stop-opacity="0.2"/>
        </linearGradient>
    </defs>
</svg>
