<svg width="40" height="40" viewBox="0 0 40 40" fill="none" xmlns="http://www.w3.org/2000/svg">
    <circle cx="19.8285" cy="19.8292" r="19.391" fill="white" stroke="black" />
    <rect x="11" y="11" width="18" height="18" rx="2" fill="#101010"/>
    <path d="M14 8.4381C14 8.19614 14.1961 8 14.4381 8H16.5619C16.8039 8 17 8.19614 17 8.4381V11H14V8.4381Z" fill="#101010"/>
    <path d="M23 8.4381C23 8.19614 23.1961 8 23.4381 8H25.5619C25.8039 8 26 8.19614 26 8.4381V11H23V8.4381Z" fill="#101010"/>
    <path d="M18.8857 28.7151H21.3299V29.9372C21.3299 30.6121 20.7827 31.1592 20.1078 31.1592C19.4329 31.1592 18.8857 30.6121 18.8857 29.9372V28.7151Z" fill="#101010"/>
    <path d="M22.2378 18.6452C22.1326 17.721 21.2567 17 20.1921 17C19.626 17 19.1416 17.1787 18.7412 17.5339C18.3409 17.8892 17.3645 18.8328 17 21.943L21.4836 21.9451C21.5641 21.2593 21.7011 20.6641 21.8657 20.1532L23.9485 19.7042L22.2378 18.6452ZM20.2979 19.5024C19.8852 19.5024 19.5507 19.2043 19.5507 18.8365C19.5507 18.4687 19.8852 18.1705 20.2979 18.1705C20.7106 18.1705 21.045 18.4687 21.045 18.8365C21.0445 19.2043 20.71 19.5024 20.2979 19.5024Z" fill="white"/>
</svg>
