<svg width="56" height="56" viewBox="0 0 56 56" fill="none" xmlns="http://www.w3.org/2000/svg">
<g clip-path="url(#clip0_4825_118306)">
<rect width="56" height="56" rx="6" fill="white"/>
<g clip-path="url(#clip1_4825_118306)">
<g filter="url(#filter0_i_4825_118306)">
<path d="M0 0H56V56H0V0Z" fill="url(#paint0_linear_4825_118306)"/>
</g>
<ellipse cx="55.5" cy="28" rx="2.5" ry="30" fill="black" fill-opacity="0.2"/>
<ellipse cx="28" cy="55.5" rx="3.5" ry="30" transform="rotate(90 28 55.5)" fill="black" fill-opacity="0.15"/>
<ellipse cy="28" rx="3" ry="30" fill="white" fill-opacity="0.05"/>
<ellipse cx="28" cy="-1" rx="4" ry="30" transform="rotate(90 28 -1)" fill="white" fill-opacity="0.08"/>
<path d="M21.6 36.4H25.325M33.6 36.4H39.2M17.6 31.6V19.6C17.6 18.7163 18.3163 18 19.2 18H34.4C35.2837 18 36 18.7163 36 19.6V36.4H31.6M22.4 25.2H29.6M21.6 35.2C21.6 36.7464 20.3464 38 18.8 38C17.2536 38 16 36.7464 16 35.2C16 33.6536 17.2536 32.4 18.8 32.4C20.3464 32.4 21.6 33.6536 21.6 35.2ZM31.2 35.2C31.2 36.7464 29.9464 38 28.4 38C26.8536 38 25.6 36.7464 25.6 35.2C25.6 33.6536 26.8536 32.4 28.4 32.4C29.9464 32.4 31.2 33.6536 31.2 35.2Z" stroke="url(#paint1_linear_4825_118306)" stroke-width="2" stroke-linecap="round" stroke-linejoin="round"/>
</g>
</g>
<defs>
<filter id="filter0_i_4825_118306" x="0" y="0" width="56" height="56" filterUnits="userSpaceOnUse" color-interpolation-filters="sRGB">
<feFlood flood-opacity="0" result="BackgroundImageFix"/>
<feBlend mode="normal" in="SourceGraphic" in2="BackgroundImageFix" result="shape"/>
<feColorMatrix in="SourceAlpha" type="matrix" values="0 0 0 0 0 0 0 0 0 0 0 0 0 0 0 0 0 0 127 0" result="hardAlpha"/>
<feOffset dy="-1.3623"/>
<feComposite in2="hardAlpha" operator="arithmetic" k2="-1" k3="1"/>
<feColorMatrix type="matrix" values="0 0 0 0 0.0416667 0 0 0 0 0.0416667 0 0 0 0 0.0416667 0 0 0 0.4 0"/>
<feBlend mode="normal" in2="shape" result="effect1_innerShadow_4825_118306"/>
</filter>
<linearGradient id="paint0_linear_4825_118306" x1="11.4394" y1="0.394132" x2="41.5526" y2="56.6055" gradientUnits="userSpaceOnUse">
<stop stop-color="#494949"/>
<stop offset="1" stop-color="#292929"/>
</linearGradient>
<linearGradient id="paint1_linear_4825_118306" x1="27.6" y1="18" x2="27.6" y2="38" gradientUnits="userSpaceOnUse">
<stop stop-color="white"/>
<stop offset="1" stop-color="#999999"/>
</linearGradient>
<clipPath id="clip0_4825_118306">
<rect width="56" height="56" rx="6" fill="white"/>
</clipPath>
<clipPath id="clip1_4825_118306">
<rect x="-2" width="59.5443" height="56" rx="2.7246" fill="white"/>
</clipPath>
</defs>
</svg>
